<svg width="22" height="22" viewBox="0 0 22 22" fill="none" xmlns="http://www.w3.org/2000/svg">
<g clip-path="url(#clip0_127_550)">
<path d="M15.3906 16.6135C15.8556 16.6135 16.2508 16.4508 16.5762 16.1253C16.9017 15.7998 17.0644 15.4046 17.0644 14.9397C17.0644 14.4747 16.9017 14.0795 16.5762 13.754C16.2508 13.4286 15.8556 13.2658 15.3906 13.2658C14.9257 13.2658 14.5305 13.4286 14.205 13.754C13.8795 14.0795 13.7168 14.4747 13.7168 14.9397C13.7168 15.4046 13.8795 15.7998 14.205 16.1253C14.5305 16.4508 14.9257 16.6135 15.3906 16.6135ZM15.3906 19.9611C15.9815 19.9611 16.5151 19.8298 16.9914 19.5672C17.4678 19.3048 17.862 18.9504 18.1739 18.5041C17.7504 18.248 17.3062 18.0548 16.8413 17.9247C16.3763 17.7945 15.8928 17.7294 15.3906 17.7294C14.8885 17.7294 14.4049 17.7945 13.94 17.9247C13.475 18.0548 13.0308 18.248 12.6073 18.5041C12.9192 18.9504 13.3134 19.3048 13.7899 19.5672C14.2662 19.8298 14.7998 19.9611 15.3906 19.9611ZM9.81119 21.0341C7.56938 20.3688 5.70706 19.0108 4.22424 16.96C2.74141 14.9092 2 12.5991 2 10.0298V3.99534L9.81119 1.07703L17.6224 3.99534V10.3065C17.455 10.2436 17.2712 10.1875 17.0709 10.138C16.8706 10.0887 16.6824 10.0433 16.5065 10.0019V4.76363L9.81119 2.27437L3.11588 4.76363V10.0298C3.11588 11.1328 3.27862 12.1894 3.60408 13.1994C3.92955 14.2093 4.37302 15.1381 4.9345 15.9858C5.49597 16.8335 6.1602 17.5742 6.92719 18.2078C7.69399 18.8416 8.51156 19.3245 9.3799 19.6565L9.44434 19.635C9.53436 19.8582 9.6466 20.075 9.78106 20.2853C9.91553 20.4955 10.0679 20.6929 10.2383 20.8776C10.1624 20.906 10.0912 20.9321 10.0246 20.9557C9.95821 20.9793 9.88707 21.0054 9.81119 21.0341ZM15.3906 21.077C14.1473 21.077 13.0926 20.6439 12.2265 19.7776C11.3602 18.9115 10.9271 17.8568 10.9271 16.6135C10.9271 15.3702 11.3602 14.3155 12.2265 13.4494C13.0926 12.5831 14.1473 12.1499 15.3906 12.1499C16.6339 12.1499 17.6886 12.5831 18.5547 13.4494C19.421 14.3155 19.8542 15.3702 19.8542 16.6135C19.8542 17.8568 19.421 18.9115 18.5547 19.7776C17.6886 20.6439 16.6339 21.077 15.3906 21.077Z" fill="#222222"/>
</g>
<defs>
<clipPath id="clip0_127_550">
<rect width="20.8" height="20.79" fill="white" transform="matrix(1 0 0 -1 0.589844 21.3896)"/>
</clipPath>
</defs>
</svg>
