<svg width="22" height="22" viewBox="0 0 22 22" fill="none" xmlns="http://www.w3.org/2000/svg">
<g clip-path="url(#clip0_127_537)">
<path d="M3.22451 13.5587H7.10718C7.47695 13.6049 7.7774 13.7435 8.00851 13.9745C8.23962 14.2055 8.37829 14.5058 8.42451 14.8754V18.7562C8.37829 19.1258 8.23962 19.4377 8.00851 19.6918C7.7774 19.9459 7.47695 20.0729 7.10718 20.0729H3.22451C2.85473 20.0729 2.54273 19.9459 2.28851 19.6918C2.03429 19.4377 1.90718 19.1258 1.90718 18.7562V14.8754C1.90718 14.5058 2.03429 14.194 2.28851 13.9399C2.54273 13.6858 2.83162 13.5587 3.15518 13.5587H3.22451ZM14.8725 1.91635H18.8245C19.1481 1.91635 19.437 2.0434 19.6912 2.2975C19.9454 2.5516 20.0725 2.84035 20.0725 3.16375V7.11385C20.0725 7.48345 19.9454 7.7953 19.6912 8.0494C19.437 8.3035 19.1481 8.43055 18.8245 8.43055H14.8725C14.5027 8.38435 14.1907 8.24575 13.9365 8.01475C13.6823 7.78375 13.5552 7.48345 13.5552 7.11385V3.16375C13.6014 2.84035 13.7401 2.5516 13.9712 2.2975C14.2023 2.0434 14.5027 1.91635 14.8725 1.91635ZM14.8725 13.5587C14.5027 13.6049 14.1907 13.7435 13.9365 13.9745C13.6823 14.2055 13.5552 14.5058 13.5552 14.8754V18.7562C13.6014 19.1258 13.7401 19.4377 13.9712 19.6918C14.2023 19.9459 14.5027 20.0729 14.8725 20.0729H18.8245C19.1481 20.0729 19.437 19.9459 19.6912 19.6918C19.9454 19.4377 20.0725 19.1258 20.0725 18.7562V14.8754C20.0725 14.5058 19.9454 14.194 19.6912 13.9399C19.437 13.6858 19.1481 13.5587 18.8245 13.5587H14.8725ZM14.8725 0.599648C14.1792 0.599648 13.5783 0.853748 13.0698 1.36195C12.5614 1.87015 12.3072 2.49385 12.3072 3.23305V7.11385C12.3072 7.80685 12.5614 8.40745 13.0698 8.91565C13.5783 9.42385 14.1792 9.67795 14.8725 9.67795H18.8245C19.5178 9.67795 20.1187 9.42385 20.6272 8.91565C21.1356 8.40745 21.3898 7.80685 21.3898 7.11385V3.16375C21.3898 2.47075 21.1356 1.87015 20.6272 1.36195C20.1187 0.853748 19.4947 0.599648 18.7552 0.599648H14.8725ZM3.22451 12.3113C2.48495 12.3113 1.86095 12.5654 1.35251 13.0736C0.844066 13.5818 0.589844 14.1824 0.589844 14.8754V18.7562C0.589844 19.4954 0.844066 20.1191 1.35251 20.6273C1.86095 21.1355 2.46184 21.3896 3.15518 21.3896H7.10718C7.80051 21.3896 8.4014 21.1355 8.90984 20.6273C9.41829 20.1191 9.67251 19.4954 9.67251 18.7562V14.8754C9.67251 14.1824 9.41829 13.5818 8.90984 13.0736C8.4014 12.5654 7.80051 12.3113 7.10718 12.3113H3.22451ZM12.3072 14.8754C12.3072 14.1824 12.5614 13.5818 13.0698 13.0736C13.5783 12.5654 14.1792 12.3113 14.8725 12.3113H18.8245C19.5178 12.3113 20.1187 12.5654 20.6272 13.0736C21.1356 13.5818 21.3898 14.1824 21.3898 14.8754V18.7562C21.3898 19.4954 21.1356 20.1191 20.6272 20.6273C20.1187 21.1355 19.4947 21.3896 18.7552 21.3896H14.8725C14.1792 21.3896 13.5783 21.1355 13.0698 20.6273C12.5614 20.1191 12.3072 19.5185 12.3072 18.8255V14.8754ZM0.589844 3.16375C0.589844 2.47075 0.844066 1.87015 1.35251 1.36195C1.86095 0.853748 2.48495 0.599648 3.22451 0.599648H7.10718C7.80051 0.599648 8.4014 0.853748 8.90984 1.36195C9.41829 1.87015 9.67251 2.49385 9.67251 3.23305V7.11385C9.67251 7.80685 9.41829 8.40745 8.90984 8.91565C8.4014 9.42385 7.80051 9.67795 7.10718 9.67795H3.22451C2.48495 9.67795 1.86095 9.42385 1.35251 8.91565C0.844066 8.40745 0.589844 7.80685 0.589844 7.11385V3.16375ZM7.52318 4.34185C7.66184 4.20325 7.73118 4.04155 7.73118 3.85675C7.73118 3.67195 7.6734 3.51025 7.55784 3.37165C7.44229 3.23305 7.29207 3.16375 7.10718 3.16375C6.92229 3.16375 6.76051 3.23305 6.62184 3.37165L4.47251 5.51995L3.64051 4.68835C3.45562 4.50355 3.24762 4.4458 3.01651 4.5151C2.7854 4.5844 2.63518 4.73455 2.56584 4.96555C2.49651 5.19655 2.55429 5.40445 2.73918 5.58925L4.05651 6.90595C4.14895 7.04455 4.28762 7.11385 4.47251 7.11385C4.6574 7.11385 4.81918 7.04455 4.95784 6.90595L7.52318 4.34185Z" fill="#222222"/>
</g>
<defs>
<clipPath id="clip0_127_537">
<rect width="20.8" height="20.79" fill="white" transform="matrix(1 0 0 -1 0.589844 21.3896)"/>
</clipPath>
</defs>
</svg>
