<svg width="36" height="37" viewBox="0 0 36 37" fill="none" xmlns="http://www.w3.org/2000/svg">
<g clip-path="url(#clip0_104_1800)">
<path d="M18.36 3.40965C18.12 3.24965 17.88 3.24965 17.64 3.40965L4.2 8.80965L9.6 10.9696L23.4 5.32965L18.36 3.40965ZM26.4 6.64965L12.6 12.1696L18 14.3296L31.8 8.80965L26.4 6.64965ZM33.72 10.3696L19.08 16.2496V34.1296L33.72 28.2496V10.3696ZM16.92 34.1296V16.2496L2.28 10.3696V28.2496L16.92 34.1296ZM16.8 1.24965C17.6 0.929646 18.4 0.929646 19.2 1.24965L35.28 7.72965C35.76 7.88965 36 8.24965 36 8.80965V28.2496C36 28.7296 35.88 29.1496 35.64 29.5096C35.4 29.8696 35.04 30.1296 34.56 30.2896L18.36 36.7696C18.12 36.9296 17.88 36.9296 17.64 36.7696L1.44 30.2896C0.96 30.1296 0.6 29.8696 0.36 29.5096C0.12 29.1496 0 28.7296 0 28.2496V8.80965C0 8.24965 0.24 7.88965 0.72 7.72965L16.8 1.24965Z" fill="white"/>
</g>
<defs>
<clipPath id="clip0_104_1800">
<rect width="36" height="36" fill="white" transform="matrix(1 0 0 -1 0 36.8896)"/>
</clipPath>
</defs>
</svg>
