<svg width="37" height="37" viewBox="0 0 37 37" fill="none" xmlns="http://www.w3.org/2000/svg">
<g clip-path="url(#clip0_104_1795)">
<path d="M24.9812 19.2496C25.1412 19.4096 25.2212 19.6496 25.2212 19.9696C25.2212 20.2896 25.1412 20.5696 24.9812 20.8096L18.1412 27.5296C17.9812 27.7696 17.7413 27.8896 17.4212 27.8896C17.1012 27.8896 16.8212 27.7696 16.5812 27.5296L13.2212 24.1696C12.9812 23.9296 12.8612 23.6696 12.8612 23.3896C12.8612 23.1096 12.9812 22.8496 13.2212 22.6096C13.4612 22.3696 13.7212 22.2496 14.0012 22.2496C14.2812 22.2496 14.5412 22.3696 14.7812 22.6096L17.4212 25.1296L23.3013 19.2496C23.5413 19.0096 23.8212 18.8896 24.1412 18.8896C24.4613 18.8896 24.7412 19.0096 24.9812 19.2496ZM18.5012 3.16965C20.0212 3.16965 21.3412 3.70965 22.4613 4.78965C23.5812 5.86965 24.1412 7.20965 24.1412 8.80965V9.88965H12.8612V8.80965C12.8612 7.20965 13.4212 5.86965 14.5412 4.78965C15.6613 3.70965 16.9812 3.16965 18.5012 3.16965ZM26.4212 9.88965V8.80965C26.4212 7.36965 26.0612 6.04965 25.3412 4.84965C24.6213 3.64965 23.6612 2.68965 22.4613 1.96965C21.2612 1.24965 19.9412 0.889648 18.5012 0.889648C17.0612 0.889648 15.7413 1.24965 14.5412 1.96965C13.3412 2.68965 12.3812 3.64965 11.6613 4.84965C10.9412 6.04965 10.5812 7.36965 10.5812 8.80965V9.88965H2.78125V32.3296C2.78125 33.6096 3.22125 34.6896 4.10125 35.5696C4.98125 36.4496 6.02125 36.8896 7.22125 36.8896H29.7812C30.9812 36.8896 32.0212 36.4496 32.9012 35.5696C33.7812 34.6896 34.2212 33.6096 34.2212 32.3296V9.88965H26.4212ZM5.06125 12.1696H32.0612V32.3296C32.0612 32.9696 31.8412 33.5096 31.4012 33.9496C30.9613 34.3896 30.4212 34.6096 29.7812 34.6096H7.22125C6.58125 34.6096 6.06125 34.3896 5.66125 33.9496C5.26125 33.5096 5.06125 32.9696 5.06125 32.3296V12.1696Z" fill="white"/>
</g>
<defs>
<clipPath id="clip0_104_1795">
<rect width="36" height="36" fill="white" transform="matrix(1 0 0 -1 0.5 36.8896)"/>
</clipPath>
</defs>
</svg>
