<svg width="36" height="37" viewBox="0 0 36 37" fill="none" xmlns="http://www.w3.org/2000/svg">
<path d="M9.00125 25.6094H4.56125V32.3294H9.00125V25.6094ZM20.2812 16.6094H15.7212V32.3294H20.2812V16.6094ZM31.5612 5.32938V32.3294H27.0012V5.32938H31.5612ZM27.0012 3.16938C26.3612 3.16938 25.8213 3.38938 25.3813 3.82938C24.9413 4.26938 24.7212 4.76938 24.7212 5.32938V32.3294C24.7212 32.9694 24.9413 33.5094 25.3813 33.9494C25.8213 34.3894 26.3612 34.6094 27.0012 34.6094H31.5612C32.1212 34.6094 32.6212 34.3894 33.0612 33.9494C33.5012 33.5094 33.7212 32.9694 33.7212 32.3294V5.32938C33.7212 4.76938 33.5012 4.26938 33.0612 3.82938C32.6212 3.38938 32.1212 3.16938 31.5612 3.16938H27.0012ZM13.5612 16.6094C13.4812 15.9694 13.6612 15.4294 14.1012 14.9894C14.5412 14.5494 15.0812 14.3294 15.7212 14.3294H20.2812C20.9212 14.3294 21.4612 14.5494 21.9012 14.9894C22.3412 15.4294 22.5612 15.9694 22.5612 16.6094V32.3294C22.5612 32.9694 22.3412 33.5094 21.9012 33.9494C21.4612 34.3894 20.9212 34.6094 20.2812 34.6094H15.7212C15.0812 34.6094 14.5613 34.3894 14.1613 33.9494C13.7613 33.5094 13.5612 32.9694 13.5612 32.3294V16.6094ZM2.28125 25.6094C2.28125 24.9694 2.50125 24.4294 2.94125 23.9894C3.38125 23.5494 3.88125 23.3294 4.44125 23.3294H9.00125C9.64125 23.4094 10.1813 23.6494 10.6213 24.0494C11.0613 24.4494 11.2812 24.9694 11.2812 25.6094V32.3294C11.2812 32.9694 11.0613 33.5094 10.6213 33.9494C10.1813 34.3894 9.64125 34.6094 9.00125 34.6094H4.56125C3.92125 34.6094 3.38125 34.3894 2.94125 33.9494C2.50125 33.5094 2.28125 32.9694 2.28125 32.3294V25.6094Z" fill="white"/>
</svg>
