<svg width="22" height="22" viewBox="0 0 22 22" fill="none" xmlns="http://www.w3.org/2000/svg">
<path d="M17.3896 13.4722C17.16 13.4722 16.9642 13.3783 16.8023 13.1906C16.6403 13.0029 16.5594 12.775 16.5594 12.5067V10.0929C16.5594 9.82468 16.6397 9.59674 16.8004 9.4091C16.9611 9.22131 17.1562 9.12741 17.3858 9.12741C17.6154 9.12741 17.8112 9.22131 17.9731 9.4091C18.135 9.59674 18.216 9.82468 18.216 10.0929V12.5067C18.216 12.775 18.1357 13.0029 17.975 13.1906C17.8143 13.3783 17.6191 13.4722 17.3896 13.4722ZM17.0692 17V15.522C16.3862 15.3933 15.8411 15.0563 15.4339 14.5111C15.0266 13.9658 14.8071 13.2976 14.7754 12.5067H15.4126C15.4126 13.1454 15.6035 13.6888 15.9853 14.137C16.3672 14.5852 16.8346 14.8092 17.3877 14.8092C17.9407 14.8092 18.4082 14.5866 18.79 14.1413C19.1719 13.6962 19.3628 13.1514 19.3628 12.5067H20C19.9682 13.2976 19.7514 13.9658 19.3494 14.5111C18.9475 15.0563 18.3998 15.3927 17.7062 15.5201V17H17.0692ZM7.57521 8.75617C6.96143 8.73139 6.43102 8.446 5.98401 7.9C5.53685 7.35416 5.31328 6.68634 5.31328 5.89655C5.31328 5.10692 5.53685 4.4391 5.98401 3.8931C6.43102 3.34726 6.96143 3.06195 7.57521 3.03717C7.61621 3.03717 7.65645 3.04087 7.69594 3.04828C7.73556 3.05584 7.78139 3.06887 7.83344 3.08738C7.57003 3.42531 7.37089 3.82664 7.23601 4.29138C7.10113 4.75628 7.0337 5.29133 7.0337 5.89655C7.0337 6.50193 7.09844 7.03087 7.22794 7.48338C7.35757 7.93572 7.5594 8.34325 7.83344 8.70597C7.79202 8.72447 7.74978 8.73743 7.70671 8.74483C7.66363 8.75239 7.6198 8.75617 7.57521 8.75617ZM2 15.7748V14.1908C2 13.8542 2.07752 13.5268 2.23255 13.2087C2.38758 12.8905 2.62441 12.6108 2.94304 12.3694C3.19154 12.1961 3.47165 12.0392 3.78337 11.8987C4.0951 11.7582 4.42028 11.6483 4.75892 11.569C4.42981 11.8464 4.17441 12.2073 3.99273 12.6516C3.81119 13.096 3.72042 13.6091 3.72042 14.1908V15.7748H2ZM11.1753 8.7931C10.4919 8.7931 9.90693 8.50948 9.42029 7.94224C8.93365 7.375 8.69034 6.6931 8.69034 5.89655C8.69034 5.1 8.93365 4.4181 9.42029 3.85086C9.90693 3.28362 10.4919 3 11.1753 3C11.8587 3 12.4437 3.28362 12.9303 3.85086C13.4169 4.4181 13.6603 5.1 13.6603 5.89655C13.6603 6.6931 13.4169 7.375 12.9303 7.94224C12.4437 8.50948 11.8587 8.7931 11.1753 8.7931ZM11.1753 7.82759C11.6309 7.82759 12.0209 7.63851 12.3453 7.26034C12.6697 6.88218 12.8319 6.42759 12.8319 5.89655C12.8319 5.36552 12.6697 4.91092 12.3453 4.53276C12.0209 4.1546 11.6309 3.96552 11.1753 3.96552C10.7197 3.96552 10.3297 4.1546 10.0053 4.53276C9.68087 4.91092 9.51865 5.36552 9.51865 5.89655C9.51865 6.42759 9.68087 6.88218 10.0053 7.26034C10.3297 7.63851 10.7197 7.82759 11.1753 7.82759ZM5.37706 15.7748V14.1908C5.37706 13.7922 5.47583 13.4184 5.67339 13.0694C5.87094 12.7203 6.13959 12.4498 6.47934 12.2579C7.14089 11.8766 7.88238 11.5629 8.70379 11.3165C9.52521 11.0703 10.349 10.9472 11.1753 10.9472C11.5322 10.9472 11.9094 10.979 12.307 11.0428C12.7047 11.1065 13.0751 11.1897 13.4182 11.2923C13.365 11.4211 13.3228 11.5712 13.2914 11.7428C13.2601 11.9141 13.2359 12.0759 13.219 12.2282C12.8845 12.1168 12.5412 12.0364 12.1892 11.9868C11.8371 11.9374 11.4992 11.9127 11.1753 11.9127C10.2981 11.9127 9.49235 12.0358 8.75805 12.282C8.02374 12.5284 7.39747 12.8026 6.87921 13.1046C6.66675 13.2223 6.50136 13.3791 6.38305 13.5753C6.2646 13.7715 6.20538 13.9766 6.20538 14.1908V14.8092H13.6619C13.7522 15.0048 13.8536 15.1798 13.9661 15.3345C14.0786 15.4893 14.2045 15.636 14.3436 15.7748H5.37706Z" fill="#222222"/>
</svg>
