<svg width="23" height="26" viewBox="0 0 23 26" fill="none" xmlns="http://www.w3.org/2000/svg">
<path d="M11.99 1.676C13.054 1.676 13.978 2.054 14.762 2.81C15.546 3.566 15.938 4.504 15.938 5.624V6.38H8.04196V5.624C8.04196 4.504 8.43396 3.566 9.21796 2.81C10.002 2.054 10.926 1.676 11.99 1.676ZM17.534 6.38V5.624C17.534 4.616 17.282 3.692 16.778 2.852C16.274 2.012 15.602 1.34 14.762 0.835999C13.922 0.331999 12.998 0.0799999 11.99 0.0799999C10.982 0.0799999 10.058 0.331999 9.21796 0.835999C8.37796 1.34 7.70596 2.012 7.20196 2.852C6.69796 3.692 6.44596 4.616 6.44596 5.624V6.38H0.985962V22.088C0.985962 22.984 1.29396 23.74 1.90996 24.356C2.52596 24.972 3.25396 25.28 4.09396 25.28H19.886C20.726 25.28 21.454 24.972 22.07 24.356C22.686 23.74 22.994 22.984 22.994 22.088V6.38H17.534ZM2.58196 7.976H21.482V22.088C21.482 22.536 21.328 22.914 21.02 23.222C20.712 23.53 20.334 23.684 19.886 23.684H4.09396C3.64596 23.684 3.28196 23.53 3.00196 23.222C2.72196 22.914 2.58196 22.536 2.58196 22.088V7.976Z" fill="#1A73E8"/>
</svg>
