<svg width="37" height="37" viewBox="0 0 37 37" fill="none" xmlns="http://www.w3.org/2000/svg">
<g clip-path="url(#clip0_104_1807)">
<path d="M18.5012 36.8896C19.7812 36.8896 20.8612 36.4496 21.7412 35.5696C22.6213 34.6896 23.0612 33.6096 23.0612 32.3296H14.0612C14.0612 33.6096 14.4812 34.6896 15.3212 35.5696C16.1613 36.4496 17.2212 36.8896 18.5012 36.8896ZM18.5012 5.20965L16.7013 5.56965C14.6212 5.96965 12.9012 7.00965 11.5413 8.68965C10.1813 10.3696 9.50125 12.2496 9.50125 14.3296C9.50125 15.2096 9.42125 16.3696 9.26125 17.8096C9.10125 19.5696 8.82125 21.2496 8.42125 22.8496C8.02125 24.8496 7.54125 26.5296 6.98125 27.8896H30.0212C29.4613 26.5296 28.9812 24.8496 28.5812 22.8496C28.1812 21.2496 27.9012 19.5696 27.7412 17.8096C27.5812 16.3696 27.5012 15.2496 27.5012 14.4496C27.5012 12.2896 26.8212 10.3696 25.4613 8.68965C24.1012 7.00965 22.3813 5.96965 20.3013 5.56965L18.5012 5.20965ZM32.5413 27.8896C33.0212 28.9296 33.5812 29.6896 34.2212 30.1696H2.78125C3.42125 29.6896 3.98125 28.9296 4.46125 27.8896C5.34125 26.1296 6.06125 23.6096 6.62125 20.3296C7.02125 17.8496 7.22125 15.8496 7.22125 14.3296C7.22125 11.6896 8.08125 9.32965 9.80125 7.24965C11.5212 5.16965 13.6613 3.88965 16.2212 3.40965C16.2212 2.92965 16.3212 2.50965 16.5212 2.14965C16.7212 1.78965 17.0012 1.48965 17.3612 1.24965C17.7212 1.00965 18.1012 0.889648 18.5012 0.889648C18.9012 0.889648 19.2812 1.00965 19.6412 1.24965C20.0012 1.48965 20.2812 1.78965 20.4812 2.14965C20.6812 2.50965 20.7812 2.92965 20.7812 3.40965C23.3412 3.88965 25.4812 5.16965 27.2013 7.24965C28.9212 9.32965 29.7812 11.7296 29.7812 14.4496C29.7812 15.8896 29.9812 17.8496 30.3812 20.3296C30.9412 23.6096 31.6612 26.1296 32.5413 27.8896Z" fill="white"/>
</g>
<defs>
<clipPath id="clip0_104_1807">
<rect width="36" height="36" fill="white" transform="matrix(1 0 0 -1 0.5 36.8896)"/>
</clipPath>
</defs>
</svg>
