<svg width="22" height="22" viewBox="0 0 22 22" fill="none" xmlns="http://www.w3.org/2000/svg">
<path d="M11 9.71429C9.93929 9.71429 9.03125 9.33661 8.27589 8.58125C7.52054 7.82589 7.14286 6.91786 7.14286 5.85714C7.14286 4.79643 7.52054 3.88839 8.27589 3.13304C9.03125 2.37768 9.93929 2 11 2C12.0607 2 12.9688 2.37768 13.7241 3.13304C14.4795 3.88839 14.8571 4.79643 14.8571 5.85714C14.8571 6.91786 14.4795 7.82589 13.7241 8.58125C12.9688 9.33661 12.0607 9.71429 11 9.71429ZM2 19.0113V16.8947C2 16.3639 2.1545 15.8673 2.4635 15.4049C2.77271 14.9426 3.18854 14.5837 3.71096 14.3281C4.92425 13.7463 6.13829 13.3099 7.35307 13.0189C8.56786 12.7281 9.7835 12.5827 11 12.5827C12.2165 12.5827 13.4321 12.7281 14.6469 13.0189C15.8617 13.3099 17.0758 13.7463 18.289 14.3281C18.8115 14.5837 19.2273 14.9426 19.5365 15.4049C19.8455 15.8673 20 16.3639 20 16.8947V19.0113H2ZM3.28571 17.7256H18.7143V16.8947C18.7143 16.6095 18.6224 16.3416 18.4385 16.0911C18.2549 15.8406 18.0006 15.6288 17.6758 15.4556C16.6176 14.9431 15.5266 14.5504 14.4026 14.2776C13.2787 14.0048 12.1445 13.8684 11 13.8684C9.8555 13.8684 8.72129 14.0048 7.59736 14.2776C6.47343 14.5504 5.38239 14.9431 4.32425 15.4556C3.99939 15.6288 3.74514 15.8406 3.5615 16.0911C3.37764 16.3416 3.28571 16.6095 3.28571 16.8947V17.7256ZM11 8.42857C11.7071 8.42857 12.3125 8.17679 12.8161 7.67321C13.3196 7.16964 13.5714 6.56429 13.5714 5.85714C13.5714 5.15 13.3196 4.54464 12.8161 4.04107C12.3125 3.5375 11.7071 3.28571 11 3.28571C10.2929 3.28571 9.6875 3.5375 9.18393 4.04107C8.68036 4.54464 8.42857 5.15 8.42857 5.85714C8.42857 6.56429 8.68036 7.16964 9.18393 7.67321C9.6875 8.17679 10.2929 8.42857 11 8.42857Z" fill="#222222"/>
</svg>
