<svg width="22" height="22" viewBox="0 0 22 22" fill="none" xmlns="http://www.w3.org/2000/svg">
<g clip-path="url(#clip0_127_495)">
<path d="M3.84851 5.79744C4.0334 5.79744 4.18362 5.73969 4.29918 5.62419C4.41473 5.50869 4.47251 5.35854 4.47251 5.17374C4.47251 4.98894 4.41473 4.82724 4.29918 4.68864C4.18362 4.55004 4.0334 4.48074 3.84851 4.48074C3.66362 4.48074 3.5134 4.55004 3.39784 4.68864C3.28229 4.82724 3.22451 4.98894 3.22451 5.17374C3.22451 5.35854 3.28229 5.50869 3.39784 5.62419C3.5134 5.73969 3.66362 5.79744 3.84851 5.79744ZM6.41384 5.17374C6.41384 5.35854 6.35607 5.50869 6.24051 5.62419C6.12495 5.73969 5.97473 5.79744 5.78984 5.79744C5.60495 5.79744 5.45473 5.73969 5.33918 5.62419C5.22362 5.50869 5.16584 5.35854 5.16584 5.17374C5.16584 4.98894 5.22362 4.82724 5.33918 4.68864C5.45473 4.55004 5.60495 4.48074 5.78984 4.48074C5.97473 4.48074 6.12495 4.55004 6.24051 4.68864C6.35607 4.82724 6.41384 4.98894 6.41384 5.17374ZM7.73118 5.79744C7.91607 5.79744 8.07784 5.73969 8.21651 5.62419C8.35518 5.50869 8.41295 5.35854 8.38984 5.17374C8.36673 4.98894 8.2974 4.82724 8.18184 4.68864C8.06629 4.55004 7.91607 4.48074 7.73118 4.48074C7.54629 4.48074 7.39607 4.55004 7.28051 4.68864C7.16495 4.82724 7.10718 4.98894 7.10718 5.17374C7.10718 5.35854 7.16495 5.50869 7.28051 5.62419C7.39607 5.73969 7.54629 5.79744 7.73118 5.79744ZM3.22451 1.91664C2.48495 1.91664 1.86095 2.17074 1.35251 2.67894C0.844066 3.18714 0.589844 3.78774 0.589844 4.48074V17.5091C0.589844 18.2021 0.844066 18.8027 1.35251 19.3109C1.86095 19.8191 2.46184 20.0732 3.15518 20.0732H18.8245C19.5178 20.0732 20.1187 19.8191 20.6272 19.3109C21.1356 18.8027 21.3898 18.2021 21.3898 17.5091V4.48074C21.3898 3.78774 21.1356 3.18714 20.6272 2.67894C20.1187 2.17074 19.4947 1.91664 18.7552 1.91664H3.22451ZM18.8245 3.16404C19.1481 3.16404 19.437 3.29109 19.6912 3.54519C19.9454 3.79929 20.0725 4.11114 20.0725 4.48074V7.11414H1.90718V4.48074C1.90718 4.11114 2.03429 3.79929 2.28851 3.54519C2.54273 3.29109 2.83162 3.16404 3.15518 3.16404H18.8245ZM1.90718 17.5091V8.36154H7.10718V18.7565H3.22451C2.85473 18.7565 2.54273 18.641 2.28851 18.41C2.03429 18.179 1.90718 17.8787 1.90718 17.5091ZM8.42451 18.7565V8.36154H20.0725V17.5091C20.0725 17.8787 19.9454 18.179 19.6912 18.41C19.437 18.641 19.1481 18.7565 18.8245 18.7565H8.42451Z" fill="#222222"/>
</g>
<defs>
<clipPath id="clip0_127_495">
<rect width="20.8" height="20.79" fill="white" transform="matrix(1 0 0 -1 0.589844 21.3896)"/>
</clipPath>
</defs>
</svg>
