<svg width="618" height="460" viewBox="0 0 618 460" fill="none" xmlns="http://www.w3.org/2000/svg">
<path d="M617.35 370.54H0V370.823H617.35V370.54Z" fill="#EBEBEB"/>
<path d="M555.491 388.75H514.598V389.033H555.491V388.75Z" fill="#EBEBEB"/>
<path d="M408.957 391.829H398.228V392.112H408.957V391.829Z" fill="#EBEBEB"/>
<path d="M513.363 378.247H489.669V378.53H513.363V378.247Z" fill="#EBEBEB"/>
<path d="M118.099 380.149H64.7725V380.432H118.099V380.149Z" fill="#EBEBEB"/>
<path d="M136.916 380.149H129.101V380.432H136.916V380.149Z" fill="#EBEBEB"/>
<path d="M277.992 384.925H162.325V385.208H277.992V384.925Z" fill="#EBEBEB"/>
<path d="M292.624 320.064H54.2155C52.3479 320.061 50.5578 319.378 49.2383 318.167C47.9188 316.955 47.1777 315.313 47.1777 313.601V6.4058C47.194 4.70365 47.9423 3.07612 49.26 1.87672C50.5777 0.677315 52.3585 0.00291587 54.2155 0H292.624C294.493 0 296.287 0.680857 297.609 1.89279C298.931 3.10472 299.674 4.74846 299.674 6.46239V313.601C299.674 315.315 298.931 316.959 297.609 318.171C296.287 319.383 294.493 320.064 292.624 320.064ZM54.2155 0.226354C52.4297 0.229352 50.7182 0.88172 49.4566 2.04027C48.195 3.19881 47.4864 4.76887 47.4864 6.4058V313.601C47.4864 315.238 48.195 316.808 49.4566 317.967C50.7182 319.125 52.4297 319.778 54.2155 319.781H292.624C294.411 319.778 296.123 319.126 297.387 317.967C298.651 316.809 299.362 315.239 299.365 313.601V6.4058C299.362 4.76783 298.651 3.1978 297.387 2.03958C296.123 0.881352 294.411 0.229346 292.624 0.226354H54.2155Z" fill="#EBEBEB"/>
<path d="M559.702 320.064H321.282C319.413 320.061 317.621 319.379 316.3 318.168C314.979 316.956 314.235 315.314 314.231 313.601V6.4058C314.251 4.70262 315.002 3.0751 316.322 1.87601C317.641 0.676919 319.423 0.00288407 321.282 0H559.702C561.557 0.00589027 563.335 0.681606 564.65 1.88069C565.965 3.07977 566.711 4.70561 566.728 6.4058V313.601C566.728 315.311 565.988 316.952 564.671 318.163C563.354 319.374 561.568 320.058 559.702 320.064ZM321.282 0.226354C319.495 0.229346 317.782 0.881352 316.518 2.03958C315.255 3.1978 314.543 4.76783 314.54 6.4058V313.601C314.543 315.239 315.255 316.809 316.518 317.967C317.782 319.126 319.495 319.778 321.282 319.781H559.702C561.489 319.778 563.202 319.126 564.465 317.967C565.729 316.809 566.44 315.239 566.444 313.601V6.4058C566.44 4.76783 565.729 3.1978 564.465 2.03958C563.202 0.881352 561.489 0.229346 559.702 0.226354H321.282Z" fill="#EBEBEB"/>
<path d="M245.989 287.23H235.581H228.716L247.952 301.83H251.484H254.632L250.138 295.572L263.25 301.83H266.411H270.14L245.989 287.23Z" fill="#E0E0E0"/>
<path d="M109.58 301.83H116.47L131.768 294.53L125.088 301.83H131.768L151.004 287.23H133.731L109.58 301.83Z" fill="#E0E0E0"/>
<path d="M128.224 301.83L144.139 287.23H133.731L109.58 301.83H113.309L131.768 292.527L125.088 301.83H128.224Z" fill="#F0F0F0"/>
<path d="M74.4023 301.831V371.073H307.044V301.831H74.4023ZM303.242 328.993H116.469V306.358H303.242V328.993Z" fill="#E0E0E0"/>
<path d="M111.382 301.831V371.073H307.045V301.831H111.382ZM303.242 328.993H116.469V306.358H303.242V328.993Z" fill="#EBEBEB"/>
<path d="M303.242 306.324H269.189V328.948H303.242V306.324Z" fill="#E0E0E0"/>
<path d="M165.784 317.63H116.47V328.948H165.784V317.63Z" fill="#E0E0E0"/>
<path d="M200.602 322.225H168.883V328.948H200.602V322.225Z" fill="#E0E0E0"/>
<path d="M245.335 315.197H207.936V328.948H245.335V315.197Z" fill="#E0E0E0"/>
<path d="M153.597 333.872L152.696 336.577H140.559L139.657 333.872H116.47V363.92H176.785V333.872H153.597Z" fill="#E0E0E0"/>
<path d="M216.74 333.872L215.838 336.577H203.714L202.812 333.872H179.612V363.92H239.94V333.872H216.74Z" fill="#E0E0E0"/>
<path d="M279.894 333.872L278.993 336.577H266.868L265.954 333.872H242.767V363.92H303.082V333.872H279.894Z" fill="#E0E0E0"/>
<path d="M266.065 195.581H105.814C103.406 195.581 101.455 197.369 101.455 199.576V285.171C101.455 287.378 103.406 289.166 105.814 289.166H266.065C268.472 289.166 270.424 287.378 270.424 285.171V199.576C270.424 197.369 268.472 195.581 266.065 195.581Z" fill="#E0E0E0"/>
<path d="M270.042 195.581H109.79C107.383 195.581 105.432 197.369 105.432 199.576V285.171C105.432 287.378 107.383 289.166 109.79 289.166H270.042C272.449 289.166 274.4 287.378 274.4 285.171V199.576C274.4 197.369 272.449 195.581 270.042 195.581Z" fill="#E6E6E6"/>
<path d="M269.424 284.616V200.13H110.382V284.616H269.424Z" fill="#F0F0F0"/>
<path d="M465.433 92.3027C477.954 89.4006 485.538 77.7437 482.372 66.2664C479.206 54.789 466.489 47.8374 453.968 50.7394C441.446 53.6415 433.862 65.2984 437.029 76.7758C440.195 88.2531 452.912 95.2048 465.433 92.3027Z" fill="#E0E0E0"/>
<path d="M479.02 75.6698C481.542 65.8755 474.925 56.0616 464.24 53.75C453.554 51.4383 442.848 57.5042 440.326 67.2985C437.804 77.0928 444.422 86.9067 455.107 89.2184C465.792 91.53 476.498 85.4641 479.02 75.6698Z" fill="#F0F0F0"/>
<path d="M458.766 58.999V71.7314L449.555 66.9553" fill="#F0F0F0"/>
<path d="M458.765 72.8629C458.549 72.8642 458.336 72.8135 458.148 72.7157L448.937 67.9057C448.655 67.7564 448.448 67.5108 448.363 67.2224C448.277 66.9341 448.319 66.6264 448.48 66.3665C448.641 66.1057 448.908 65.914 449.223 65.8334C449.538 65.7528 449.875 65.7898 450.16 65.9365L457.568 69.7618V58.9648C457.568 58.6646 457.698 58.3767 457.929 58.1645C458.161 57.9522 458.475 57.833 458.802 57.833C459.13 57.833 459.444 57.9522 459.676 58.1645C459.907 58.3767 460.037 58.6646 460.037 58.9648V71.6971C460.037 71.9973 459.907 72.2852 459.676 72.4974C459.444 72.7097 459.13 72.8289 458.802 72.8289L458.765 72.8629Z" fill="#E0E0E0"/>
<path d="M141.212 71.5729C141.212 71.5729 140.076 64.7823 145.509 60.3798C150.942 55.9772 150.448 53.4081 148.905 53.0686C147.361 52.729 145.929 57.0976 143.546 58.2973C143.546 58.2973 143.459 52.0726 145.892 49.7751C148.324 47.4776 149.596 41.5698 147.275 41.4679C144.953 41.3661 144.731 44.9764 144.262 47.5342C143.606 49.728 142.576 51.8133 141.212 53.7137C141.212 53.7137 140.706 48.134 139.138 45.7913C137.57 43.4485 141.756 38.2537 140.138 35.9562C138.521 33.6587 135.669 38.0387 135.903 42.9506C136.138 47.8624 139.731 53.1365 138.891 58.252C138.891 58.252 137.311 54.653 135.891 54.3248C134.471 53.9966 133.051 51.6086 132.088 50.7258C131.125 49.843 129.952 52.8988 132.088 55.7395C134.224 58.5803 139.731 66.1857 138.891 72.3312L141.212 71.5729Z" fill="#E6E6E6"/>
<path d="M144.46 68.4717L146.225 78.6576C146.356 79.3994 146.309 80.1584 146.088 80.8819C145.867 81.6055 145.477 82.2763 144.945 82.848C144.413 83.4196 143.752 83.8784 143.007 84.1925C142.262 84.5067 141.452 84.6687 140.632 84.6673H138.743C137.923 84.6684 137.112 84.5063 136.367 84.1923C135.622 83.8782 134.96 83.4197 134.427 82.8483C133.894 82.2769 133.503 81.6063 133.28 80.8828C133.058 80.1592 133.009 79.4 133.138 78.6576L134.916 68.4717H144.46Z" fill="#E6E6E6"/>
<path d="M117.58 86.8403L243.174 86.8403V80.9212L117.58 80.9212V86.8403Z" fill="#E0E0E0"/>
<path d="M231.864 80.9321H237.396V59.1343H231.864V80.9321Z" fill="#EBEBEB"/>
<path d="M205.108 80.9321H210.64V59.1343H205.108V80.9321Z" fill="#EBEBEB"/>
<path d="M170.701 80.0709L176.152 80.9321L180.194 59.4399L174.743 58.5787L170.701 80.0709Z" fill="#EBEBEB"/>
<path d="M224.999 80.9321H230.53V61.9977H224.999V80.9321Z" fill="#EBEBEB"/>
<path d="M212.294 80.9321H217.825V61.9977H212.294V80.9321Z" fill="#EBEBEB"/>
<path d="M180.179 80.9321H185.711V61.9977H180.179V80.9321Z" fill="#EBEBEB"/>
<path d="M193.372 79.8209L198.771 80.9209L203.253 62.4374L197.853 61.3374L193.372 79.8209Z" fill="#EBEBEB"/>
<path d="M220.222 80.9321H222.987V58.0478H220.222V80.9321Z" fill="#EBEBEB"/>
<path d="M187.316 80.9321H190.082V58.0478H187.316V80.9321Z" fill="#EBEBEB"/>
<path d="M243.174 125.082H117.58V131.001H243.174V125.082Z" fill="#E0E0E0"/>
<path d="M128.891 103.284H123.359V125.093H128.891V103.284Z" fill="#EBEBEB"/>
<path d="M155.647 103.284H150.115V125.093H155.647V103.284Z" fill="#EBEBEB"/>
<path d="M186.019 102.733L180.568 103.594L184.61 125.086L190.061 124.225L186.019 102.733Z" fill="#EBEBEB"/>
<path d="M135.755 106.159H130.224V125.093H135.755V106.159Z" fill="#EBEBEB"/>
<path d="M148.473 106.159H142.941V125.093H148.473V106.159Z" fill="#EBEBEB"/>
<path d="M180.562 106.159H175.03V125.093H180.562V106.159Z" fill="#EBEBEB"/>
<path d="M162.921 105.495L157.521 106.595L162.003 125.079L167.403 123.979L162.921 105.495Z" fill="#EBEBEB"/>
<path d="M140.533 102.199H137.768V125.084H140.533V102.199Z" fill="#EBEBEB"/>
<path d="M173.45 102.199H170.685V125.084H173.45V102.199Z" fill="#EBEBEB"/>
<path d="M231.136 107.835H204.17V124.891H231.136V107.835Z" fill="#EBEBEB"/>
<path d="M308.675 421.651C440.89 421.651 548.071 415.915 548.071 408.839C548.071 401.763 440.89 396.027 308.675 396.027C176.46 396.027 69.2793 401.763 69.2793 408.839C69.2793 415.915 176.46 421.651 308.675 421.651Z" fill="#F5F5F5"/>
<path d="M111.802 366.85C111.802 366.511 110.567 332.897 104.628 327.634C98.924 322.564 92.3554 327.453 92.0715 327.634L91.2812 326.763C91.3553 326.706 98.9858 321.002 105.48 326.763C111.765 332.354 112.987 365.345 113.037 366.748L111.802 366.85Z" fill="#407BFF"/>
<path d="M112.358 373.482C112.185 371.83 108.271 333.033 124.236 316.226L125.174 316.973C109.518 333.395 113.506 372.962 113.593 373.358L112.358 373.482Z" fill="#407BFF"/>
<path d="M112.024 369.238L110.789 369.159C110.789 368.706 113.913 323.764 102.27 313.962L103.109 313.125C115.172 323.3 112.159 367.359 112.024 369.238Z" fill="#407BFF"/>
<path d="M113.592 369.204H112.357C112.357 367.959 112.74 338.726 121.852 333.938C122.73 333.419 123.73 333.1 124.77 333.007C125.809 332.915 126.858 333.051 127.828 333.406C133.36 335.512 136.088 344.486 136.199 344.86L134.965 345.165C134.965 345.075 132.285 336.338 127.322 334.459C126.52 334.161 125.651 334.047 124.79 334.128C123.929 334.209 123.102 334.482 122.383 334.923C113.925 339.371 113.592 368.955 113.592 369.204Z" fill="#407BFF"/>
<path d="M110.024 369.227L108.789 369.159C108.789 368.933 110.148 346.173 103.468 338.171C101.863 336.27 100.147 335.353 98.3315 335.478C94.0101 335.749 90.3554 341.589 90.3307 341.646L89.2441 341.091C89.417 340.831 93.2569 334.663 98.2451 334.301C100.492 334.154 102.579 335.206 104.419 337.447C111.419 345.822 110.086 368.276 110.024 369.227Z" fill="#407BFF"/>
<path d="M111.198 372.35C111.025 370.086 106.814 318.025 114.247 308.767L115.235 309.446C108.074 318.331 112.395 371.693 112.432 372.259L111.198 372.35Z" fill="#407BFF"/>
<path d="M129.742 338.805C129.742 338.805 125.31 340.31 126.631 343.853C127.952 347.395 141.99 353.224 141.99 353.224C141.99 353.224 147.868 348.278 142.472 340.242C137.076 332.207 129.866 336.27 129.742 338.805Z" fill="#407BFF"/>
<path opacity="0.2" d="M129.742 338.805C129.742 338.805 125.31 340.31 126.631 343.853C127.952 347.395 141.99 353.224 141.99 353.224C141.99 353.224 147.868 348.278 142.472 340.242C137.076 332.207 129.866 336.27 129.742 338.805Z" fill="white"/>
<path d="M110.444 332.06C110.444 332.06 115.173 331.879 115.383 335.613C115.592 339.348 105.196 349.715 105.196 349.715C105.196 349.715 97.6893 347.237 99.2944 337.911C100.899 328.585 109.258 329.762 110.444 332.06Z" fill="#407BFF"/>
<path opacity="0.2" d="M110.444 332.06C110.444 332.06 115.173 331.879 115.383 335.613C115.592 339.348 105.196 349.715 105.196 349.715C105.196 349.715 97.6893 347.237 99.2944 337.911C100.899 328.585 109.258 329.762 110.444 332.06Z" fill="white"/>
<path d="M106.431 314.177C106.431 314.177 109.592 313.86 109.332 312.106C109.073 310.352 97.0719 305.814 89.9971 313.136C89.9971 313.136 94.5284 320.278 101.109 320.368C107.69 320.459 106.431 314.177 106.431 314.177Z" fill="#407BFF"/>
<path opacity="0.2" d="M106.431 314.177C106.431 314.177 109.592 313.86 109.332 312.106C109.073 310.352 97.0719 305.814 89.9971 313.136C89.9971 313.136 94.5284 320.278 101.109 320.368C107.69 320.459 106.431 314.177 106.431 314.177Z" fill="white"/>
<path d="M112.358 309.9C112.358 309.9 109.506 311.167 108.654 309.549C107.802 307.93 115.432 298.231 125.668 301.049C125.668 301.049 125.94 309.311 120.433 312.571C114.926 315.83 112.358 309.9 112.358 309.9Z" fill="#407BFF"/>
<path opacity="0.2" d="M112.358 309.9C112.358 309.9 109.506 311.167 108.654 309.549C107.802 307.93 115.432 298.231 125.668 301.049C125.668 301.049 125.94 309.311 120.433 312.571C114.926 315.83 112.358 309.9 112.358 309.9Z" fill="white"/>
<path d="M97.3808 337.378C97.3808 337.378 99.5538 335.771 97.2079 334.979C94.862 334.187 83.3299 334.424 83.2188 344.882C83.2188 344.882 96.6399 346.93 98.2944 342.947C99.9489 338.963 97.3808 337.378 97.3808 337.378Z" fill="#407BFF"/>
<path opacity="0.2" d="M97.3808 337.378C97.3808 337.378 99.5538 335.771 97.2079 334.979C94.862 334.187 83.3299 334.424 83.2188 344.882C83.2188 344.882 96.6399 346.93 98.2944 342.947C99.9489 338.963 97.3808 337.378 97.3808 337.378Z" fill="white"/>
<path d="M124.705 313.917C124.705 313.917 122.519 312.299 124.877 311.518C127.236 310.737 138.743 310.952 138.867 321.421C138.867 321.421 125.445 323.458 123.779 319.474C122.112 315.49 124.705 313.917 124.705 313.917Z" fill="#407BFF"/>
<path opacity="0.2" d="M124.705 313.917C124.705 313.917 122.519 312.299 124.877 311.518C127.236 310.737 138.743 310.952 138.867 321.421C138.867 321.421 125.445 323.458 123.779 319.474C122.112 315.49 124.705 313.917 124.705 313.917Z" fill="white"/>
<path d="M117.655 322.337C117.655 322.337 117.457 320.379 119.186 321.149C120.914 321.919 126.915 327.86 120.692 333.497C120.692 333.497 112.309 327.838 113.815 324.838C115.321 321.839 117.655 322.337 117.655 322.337Z" fill="#407BFF"/>
<path opacity="0.2" d="M117.655 322.337C117.655 322.337 117.457 320.379 119.186 321.149C120.914 321.919 126.915 327.86 120.692 333.497C120.692 333.497 112.309 327.838 113.815 324.838C115.321 321.839 117.655 322.337 117.655 322.337Z" fill="white"/>
<path d="M95.4296 325.134C95.4296 325.134 96.7384 323.572 94.8246 323.38C92.9108 323.187 84.3914 325.27 86.4287 333.079C86.4287 333.079 96.8248 332.366 97.2693 329.118C97.7138 325.869 95.4296 325.134 95.4296 325.134Z" fill="#407BFF"/>
<path opacity="0.2" d="M95.4296 325.134C95.4296 325.134 96.7384 323.572 94.8246 323.38C92.9108 323.187 84.3914 325.27 86.4287 333.079C86.4287 333.079 96.8248 332.366 97.2693 329.118C97.7138 325.869 95.4296 325.134 95.4296 325.134Z" fill="white"/>
<path d="M130.582 398.201H94.8864L91.0342 362.38H134.422L130.582 398.201Z" fill="#407BFF"/>
<path opacity="0.5" d="M130.582 398.201H94.8864L91.0342 362.38H134.422L130.582 398.201Z" fill="white"/>
<path d="M136.335 358.43H89.1328V366.33H136.335V358.43Z" fill="#407BFF"/>
<path opacity="0.2" d="M136.335 358.43H89.1328V366.33H136.335V358.43Z" fill="white"/>
<path d="M419.823 398.201L419.897 397.782L421.984 375.396H430.886L424.527 398.201" fill="#263238"/>
<path d="M502.202 398.201L502.127 397.782L500.029 375.396H491.139L497.497 398.201" fill="#263238"/>
<path d="M408.093 398.201L408.167 397.782L412.217 375.396H421.107L412.797 398.201" fill="#263238"/>
<path d="M513.932 398.201L513.845 397.782L509.808 375.396H500.918L509.227 398.201" fill="#263238"/>
<g opacity="0.2">
<path d="M408.093 398.201L408.167 397.782L412.217 375.396H421.107L412.797 398.201" fill="white"/>
<path d="M513.932 398.201L513.845 397.782L509.808 375.396H500.918L509.227 398.201" fill="white"/>
</g>
<path d="M514.598 241.395H407.438C404.725 241.395 402.524 243.411 402.524 245.899V375.882C402.524 378.37 404.725 380.387 407.438 380.387H514.598C517.312 380.387 519.512 378.37 519.512 375.882V245.899C519.512 243.411 517.312 241.395 514.598 241.395Z" fill="#407BFF"/>
<path opacity="0.4" d="M514.598 241.395H407.438C404.725 241.395 402.524 243.411 402.524 245.899V375.882C402.524 378.37 404.725 380.387 407.438 380.387H514.598C517.312 380.387 519.512 378.37 519.512 375.882V245.899C519.512 243.411 517.312 241.395 514.598 241.395Z" fill="white"/>
<path opacity="0.5" d="M514.734 271.703H407.29V321.874H514.734V271.703Z" fill="white"/>
<path opacity="0.5" d="M514.734 325.213H407.29V375.384H514.734V325.213Z" fill="white"/>
<path opacity="0.5" d="M514.734 246.386H407.29V268.354H514.734V246.386Z" fill="white"/>
<path opacity="0.5" d="M469.804 250.042H452.222C451.695 250.039 451.179 249.903 450.732 249.647C450.285 249.391 449.924 249.026 449.691 248.593L448.518 246.386H473.508L472.273 248.593C472.048 249.02 471.697 249.381 471.262 249.637C470.826 249.893 470.321 250.033 469.804 250.042Z" fill="black"/>
<path opacity="0.5" d="M469.804 275.347H452.222C451.694 275.347 451.177 275.211 450.729 274.955C450.282 274.699 449.922 274.333 449.691 273.898L448.518 271.703H473.508L472.273 273.898C472.05 274.327 471.7 274.689 471.264 274.945C470.828 275.201 470.322 275.341 469.804 275.347Z" fill="black"/>
<path opacity="0.5" d="M469.804 328.868H452.222C451.694 328.869 451.177 328.733 450.729 328.477C450.282 328.221 449.922 327.854 449.691 327.42L448.518 325.213H473.508L472.273 327.42C472.05 327.848 471.7 328.211 471.264 328.467C470.828 328.723 470.322 328.862 469.804 328.868Z" fill="black"/>
<path d="M492.262 226.06L501.547 241.395H489.99L492.262 226.06Z" fill="#407BFF"/>
<path opacity="0.2" d="M492.262 226.06L501.547 241.395H489.99L492.262 226.06Z" fill="black"/>
<path d="M495.362 241.394H473.508L480.348 215.443H502.202L495.362 241.394Z" fill="#407BFF"/>
<path opacity="0.5" d="M476.521 239.334L482.274 217.502H499.19L493.436 239.334H476.521Z" fill="white"/>
<path d="M431.416 229.578L425.996 241.394H440.491L431.416 229.578Z" fill="#407BFF"/>
<path d="M461.012 241.395H433.256L426.736 222.958H454.505L461.012 241.395Z" fill="#407BFF"/>
<path opacity="0.2" d="M461.012 241.395H433.256L426.736 222.958H454.505L461.012 241.395Z" fill="white"/>
<path opacity="0.5" d="M434.787 238.735L430.145 225.618H452.974L457.604 238.735H434.787Z" fill="white"/>
<path d="M337.357 102.754H159.968C152.876 102.754 147.127 108.024 147.127 114.524V403.159C147.127 409.659 152.876 414.929 159.968 414.929H337.357C344.449 414.929 350.198 409.659 350.198 403.159V114.524C350.198 108.024 344.449 102.754 337.357 102.754Z" fill="#263238"/>
<path d="M343.345 113.97V403.114C343.345 403.717 343.214 404.314 342.959 404.87C342.704 405.426 342.33 405.93 341.86 406.352C341.389 406.773 340.832 407.105 340.22 407.326C339.607 407.548 338.953 407.655 338.295 407.641H158.486C157.888 407.649 157.294 407.546 156.74 407.338C156.186 407.13 155.684 406.822 155.263 406.432C154.842 406.042 154.511 405.579 154.291 405.069C154.07 404.559 153.964 404.013 153.979 403.465V113.597C153.956 113.112 154.038 112.629 154.22 112.173C154.403 111.718 154.681 111.301 155.041 110.945C155.4 110.589 155.833 110.302 156.314 110.101C156.795 109.899 157.315 109.787 157.844 109.771H202.799C203.426 109.783 204.035 109.965 204.549 110.293C205.063 110.621 205.46 111.082 205.689 111.616L207.553 115.826C207.781 116.361 208.178 116.82 208.693 117.147C209.207 117.474 209.816 117.652 210.442 117.66H286.994C287.617 117.657 288.226 117.483 288.741 117.16C289.256 116.837 289.654 116.381 289.883 115.849L291.747 111.628C291.974 111.091 292.37 110.628 292.884 110.298C293.399 109.967 294.008 109.784 294.636 109.771H338.95C340.136 109.804 341.262 110.262 342.084 111.047C342.906 111.833 343.359 112.882 343.345 113.97Z" fill="#407BFF"/>
<path opacity="0.3" d="M343.345 113.97V403.114C343.345 403.717 343.214 404.314 342.959 404.87C342.704 405.426 342.33 405.93 341.86 406.352C341.389 406.773 340.832 407.105 340.22 407.326C339.607 407.548 338.953 407.655 338.295 407.641H158.486C157.888 407.649 157.294 407.546 156.74 407.338C156.186 407.13 155.684 406.822 155.263 406.432C154.842 406.042 154.511 405.579 154.291 405.069C154.07 404.559 153.964 404.013 153.979 403.465V113.597C153.956 113.112 154.038 112.629 154.22 112.173C154.403 111.718 154.681 111.301 155.041 110.945C155.4 110.589 155.833 110.302 156.314 110.101C156.795 109.899 157.315 109.787 157.844 109.771H202.799C203.426 109.783 204.035 109.965 204.549 110.293C205.063 110.621 205.46 111.082 205.689 111.616L207.553 115.826C207.781 116.361 208.178 116.82 208.693 117.147C209.207 117.474 209.816 117.652 210.442 117.66H286.994C287.617 117.657 288.226 117.483 288.741 117.16C289.256 116.837 289.654 116.381 289.883 115.849L291.747 111.628C291.974 111.091 292.37 110.628 292.884 110.298C293.399 109.967 294.008 109.784 294.636 109.771H338.95C340.136 109.804 341.262 110.262 342.084 111.047C342.906 111.833 343.359 112.882 343.345 113.97Z" fill="black"/>
<path opacity="0.6" d="M343.345 129.249H153.979V386.398H343.345V129.249Z" fill="white"/>
<path opacity="0.6" d="M174.859 122.333H177.192V119.47H174.859V122.333Z" fill="white"/>
<path opacity="0.6" d="M171.043 122.333H173.377V118.519H171.043V122.333Z" fill="white"/>
<path opacity="0.6" d="M167.228 122.333H169.562V117.568H167.228V122.333Z" fill="white"/>
<path opacity="0.6" d="M163.413 122.333H165.746V116.618H163.413V122.333Z" fill="white"/>
<path opacity="0.6" d="M321.911 118.429H320.528V121.292H321.911V118.429Z" fill="white"/>
<path opacity="0.6" d="M322.862 122.333H333.912V117.387H322.862V122.333Z" fill="white"/>
<path opacity="0.6" d="M248.632 110.178C248.632 110.65 248.48 111.112 248.193 111.505C247.907 111.898 247.5 112.204 247.024 112.384C246.548 112.565 246.024 112.612 245.519 112.52C245.013 112.428 244.549 112.201 244.185 111.867C243.821 111.533 243.572 111.107 243.472 110.644C243.371 110.181 243.423 109.701 243.62 109.264C243.817 108.828 244.151 108.455 244.58 108.193C245.008 107.93 245.512 107.79 246.027 107.79C246.37 107.789 246.709 107.849 247.026 107.969C247.343 108.088 247.631 108.264 247.873 108.486C248.115 108.708 248.307 108.972 248.437 109.262C248.568 109.553 248.634 109.864 248.632 110.178Z" fill="white"/>
<path opacity="0.6" d="M253.891 110.178C253.891 110.48 253.794 110.775 253.61 111.027C253.427 111.278 253.167 111.474 252.862 111.589C252.558 111.705 252.223 111.735 251.899 111.676C251.576 111.617 251.279 111.472 251.046 111.258C250.813 111.044 250.654 110.772 250.59 110.476C250.525 110.179 250.558 109.872 250.685 109.593C250.811 109.314 251.024 109.075 251.298 108.907C251.573 108.74 251.895 108.65 252.224 108.65C252.667 108.65 253.091 108.811 253.403 109.097C253.716 109.384 253.891 109.773 253.891 110.178Z" fill="white"/>
<path d="M343.345 129.249H153.979V158.935H343.345V129.249Z" fill="#407BFF"/>
<path d="M335.307 146.519V144.256H333.109C332.968 143.681 332.717 143.133 332.369 142.637L333.924 141.211L332.134 139.57L330.578 140.996C330.036 140.682 329.439 140.456 328.813 140.329V138.314H326.343V140.34C325.718 140.469 325.121 140.695 324.578 141.008L323.022 139.582L321.269 141.2L322.824 142.626C322.476 143.121 322.225 143.669 322.084 144.244H319.886V146.508H322.084C322.227 147.079 322.478 147.623 322.824 148.115L321.269 149.541L323.022 151.16L324.578 149.733C325.123 150.045 325.719 150.274 326.343 150.413V152.416H328.813V150.413C329.438 150.276 330.034 150.047 330.578 149.733L332.134 151.16L333.887 149.541L332.332 148.115C332.678 147.623 332.929 147.079 333.072 146.508L335.307 146.519ZM327.603 147.481C327.145 147.481 326.699 147.357 326.319 147.124C325.939 146.891 325.643 146.56 325.468 146.172C325.294 145.785 325.249 145.359 325.339 144.948C325.429 144.537 325.65 144.16 325.974 143.864C326.299 143.569 326.711 143.368 327.16 143.288C327.608 143.207 328.073 143.251 328.495 143.413C328.916 143.575 329.276 143.848 329.528 144.197C329.781 144.547 329.914 144.957 329.912 145.376C329.912 145.654 329.852 145.928 329.736 146.184C329.619 146.441 329.449 146.673 329.235 146.869C329.02 147.064 328.765 147.219 328.485 147.324C328.205 147.429 327.905 147.483 327.603 147.481Z" fill="white"/>
<path d="M170.352 139.14L162.018 146.395H164.598V151.601H176.106V146.395H178.674L170.352 139.14Z" fill="white"/>
<path opacity="0.4" d="M283.846 208.778C283.853 215.159 281.795 221.399 277.932 226.708C274.07 232.017 268.576 236.157 262.146 238.603C255.716 241.049 248.639 241.692 241.81 240.45C234.981 239.209 228.708 236.138 223.783 231.628C218.859 227.117 215.505 221.368 214.145 215.11C212.786 208.851 213.482 202.364 216.146 196.468C218.811 190.572 223.323 185.533 229.112 181.989C234.901 178.445 241.707 176.554 248.669 176.556C253.289 176.549 257.865 177.377 262.134 178.993C266.404 180.61 270.284 182.982 273.552 185.976C276.82 188.969 279.411 192.524 281.177 196.436C282.944 200.349 283.851 204.543 283.846 208.778Z" fill="black"/>
<path opacity="0.8" d="M275.264 229.897C271.961 233.391 267.876 236.194 263.288 238.115C258.699 240.036 253.713 241.031 248.669 241.031C243.624 241.031 238.638 240.036 234.05 238.115C229.461 236.194 225.377 233.391 222.073 229.897C223.347 225.709 225.776 221.892 229.126 218.813C232.475 215.735 236.633 213.499 241.199 212.32C238.757 210.848 236.899 208.694 235.9 206.177C234.9 203.66 234.813 200.914 235.651 198.348C236.49 195.782 238.208 193.533 240.552 191.933C242.896 190.334 245.74 189.47 248.663 189.47C251.585 189.47 254.429 190.334 256.773 191.933C259.117 193.533 260.835 195.782 261.674 198.348C262.512 200.914 262.425 203.66 261.425 206.177C260.426 208.694 258.568 210.848 256.126 212.32C260.692 213.5 264.851 215.737 268.202 218.815C271.554 221.893 273.986 225.709 275.264 229.897Z" fill="white"/>
<g opacity="0.5">
<path d="M182.612 260.172V260.761H178.847V256.007H182.551V256.596H179.637V258.044H182.242V258.622H179.637V260.161L182.612 260.172Z" fill="black"/>
<path d="M183.305 258.609H185.305V259.175H183.305V258.609Z" fill="black"/>
<path d="M192.91 258.689V260.761H192.206V258.769C192.206 258.056 191.836 257.716 191.194 257.716C191.022 257.701 190.849 257.721 190.687 257.776C190.525 257.832 190.38 257.92 190.26 258.034C190.141 258.149 190.052 258.287 190 258.438C189.948 258.588 189.934 258.748 189.959 258.904V260.761H189.256V258.769C189.256 258.056 188.885 257.716 188.231 257.716C188.059 257.701 187.886 257.721 187.724 257.776C187.562 257.832 187.416 257.92 187.297 258.034C187.178 258.149 187.089 258.287 187.037 258.438C186.985 258.588 186.971 258.748 186.996 258.904V260.761H186.44V257.162H187.12V257.705C187.273 257.513 187.476 257.359 187.712 257.258C187.947 257.157 188.206 257.112 188.465 257.128C188.739 257.109 189.013 257.162 189.256 257.28C189.498 257.398 189.699 257.577 189.836 257.795C190.007 257.579 190.234 257.404 190.497 257.288C190.76 257.171 191.05 257.116 191.342 257.128C191.563 257.118 191.783 257.152 191.988 257.229C192.192 257.306 192.376 257.423 192.526 257.572C192.675 257.721 192.787 257.898 192.854 258.091C192.92 258.284 192.94 258.489 192.91 258.689Z" fill="black"/>
<path d="M197.342 258.587V260.76H196.663V260.307C196.519 260.479 196.331 260.617 196.116 260.707C195.901 260.798 195.665 260.839 195.429 260.828C194.54 260.828 193.972 260.386 193.972 259.764C193.972 259.141 194.379 258.711 195.552 258.711H196.676V258.587C196.676 258.032 196.33 257.715 195.626 257.715C195.179 257.713 194.745 257.849 194.391 258.1L194.095 257.613C194.561 257.295 195.132 257.131 195.713 257.149C196.725 257.127 197.342 257.602 197.342 258.587ZM196.626 259.662V259.175H195.527C194.824 259.175 194.626 259.436 194.626 259.741C194.626 260.047 194.947 260.318 195.49 260.318C195.731 260.332 195.97 260.276 196.174 260.158C196.378 260.04 196.536 259.867 196.626 259.662Z" fill="black"/>
<path d="M198.527 256.052C198.527 255.994 198.54 255.938 198.564 255.885C198.589 255.832 198.624 255.784 198.669 255.744C198.714 255.704 198.767 255.672 198.826 255.651C198.884 255.63 198.946 255.62 199.009 255.622C199.101 255.624 199.191 255.651 199.266 255.7C199.342 255.748 199.4 255.816 199.433 255.895C199.467 255.974 199.475 256.06 199.455 256.142C199.436 256.225 199.39 256.301 199.324 256.36C199.258 256.419 199.174 256.459 199.084 256.474C198.993 256.49 198.899 256.481 198.814 256.448C198.729 256.415 198.657 256.36 198.606 256.29C198.555 256.219 198.527 256.136 198.527 256.052ZM198.663 257.184H199.367V260.783H198.663V257.184Z" fill="black"/>
<path d="M200.726 255.781H201.429V260.817H200.726V255.781Z" fill="black"/>
</g>
<g opacity="0.8">
<path d="M309.971 284.29H187.353C184.891 284.29 182.529 283.393 180.788 281.797C179.047 280.201 178.068 278.036 178.068 275.779C178.068 273.522 179.047 271.357 180.788 269.761C182.529 268.165 184.891 267.268 187.353 267.268H309.971C312.434 267.268 314.795 268.165 316.537 269.761C318.278 271.357 319.256 273.522 319.256 275.779C319.256 278.036 318.278 280.201 316.537 281.797C314.795 283.393 312.434 284.29 309.971 284.29Z" fill="white"/>
</g>
<g opacity="0.5">
<path d="M183.032 299.546C183.032 300.576 182.217 301.198 180.871 301.198H179.636V302.636H178.896V297.882H180.92C182.217 297.882 183.032 298.505 183.032 299.546ZM182.291 299.546C182.291 298.867 181.797 298.471 180.846 298.471H179.612V300.61H180.846C181.797 300.61 182.291 300.214 182.291 299.546Z" fill="black"/>
<path d="M187.094 300.463V302.636H186.44V302.183C186.296 302.356 186.109 302.494 185.893 302.585C185.678 302.675 185.442 302.716 185.205 302.704C184.316 302.704 183.748 302.262 183.748 301.64C183.748 301.017 184.155 300.587 185.328 300.587H186.44V300.463C186.44 299.908 186.094 299.591 185.39 299.591C184.943 299.589 184.509 299.725 184.155 299.976L183.859 299.489C184.33 299.171 184.904 299.007 185.489 299.025C186.44 299.003 187.094 299.478 187.094 300.463ZM186.378 301.538V301.051H185.279C184.575 301.051 184.378 301.311 184.378 301.617C184.378 301.923 184.711 302.194 185.242 302.194C185.493 302.223 185.747 302.173 185.964 302.055C186.181 301.936 186.348 301.754 186.44 301.538H186.378Z" fill="black"/>
<path d="M187.921 302.251L188.217 301.742C188.624 301.987 189.101 302.117 189.588 302.115C190.242 302.115 190.526 301.934 190.526 301.628C190.526 300.814 188.057 301.515 188.057 300.078C188.057 299.444 188.686 299.003 189.687 299.003C190.187 298.996 190.681 299.109 191.119 299.331L190.81 299.84C190.473 299.649 190.083 299.551 189.687 299.557C189.057 299.557 188.761 299.772 188.761 300.055C188.761 300.904 191.23 300.214 191.23 301.606C191.23 302.262 190.575 302.681 189.538 302.681C188.964 302.693 188.399 302.543 187.921 302.251Z" fill="black"/>
<path d="M191.625 302.251L191.921 301.742C192.333 301.986 192.814 302.115 193.304 302.115C193.959 302.115 194.23 301.934 194.23 301.628C194.23 300.814 191.761 301.515 191.761 300.078C191.761 299.444 192.391 299.003 193.403 299.003C193.903 298.997 194.397 299.11 194.835 299.331L194.527 299.84C194.184 299.65 193.791 299.552 193.391 299.557C192.773 299.557 192.465 299.772 192.465 300.055C192.465 300.904 194.934 300.214 194.934 301.606C194.934 302.262 194.28 302.681 193.23 302.681C192.66 302.689 192.1 302.539 191.625 302.251Z" fill="black"/>
<path d="M201.7 299.036L200.231 302.635H199.552L198.416 299.919L197.267 302.646H196.588L195.082 299.036H195.749L196.897 301.9L198.132 299.036H198.786L200.021 301.911L201.181 299.036H201.7Z" fill="black"/>
<path d="M201.947 300.836C201.942 300.466 202.058 300.102 202.279 299.792C202.499 299.482 202.816 299.239 203.188 299.095C203.56 298.95 203.97 298.909 204.367 298.979C204.763 299.048 205.129 299.224 205.416 299.485C205.704 299.745 205.9 300.078 205.981 300.44C206.061 300.803 206.022 301.18 205.869 301.523C205.716 301.865 205.454 302.158 205.119 302.364C204.783 302.57 204.389 302.681 203.985 302.681C203.716 302.692 203.448 302.652 203.197 302.563C202.946 302.475 202.717 302.34 202.526 302.166C202.335 301.993 202.185 301.785 202.085 301.557C201.985 301.328 201.939 301.082 201.947 300.836ZM205.306 300.836C205.306 300.677 205.272 300.519 205.205 300.372C205.139 300.226 205.041 300.092 204.919 299.98C204.796 299.867 204.65 299.778 204.49 299.717C204.33 299.656 204.158 299.625 203.985 299.625C203.811 299.625 203.639 299.656 203.479 299.717C203.319 299.778 203.173 299.867 203.05 299.98C202.928 300.092 202.83 300.226 202.764 300.372C202.698 300.519 202.663 300.677 202.663 300.836C202.663 300.995 202.698 301.152 202.764 301.299C202.83 301.446 202.928 301.58 203.05 301.692C203.173 301.805 203.319 301.894 203.479 301.955C203.639 302.016 203.811 302.047 203.985 302.047C204.158 302.047 204.33 302.016 204.49 301.955C204.65 301.894 204.796 301.805 204.919 301.692C205.041 301.58 205.139 301.446 205.205 301.299C205.272 301.152 205.306 300.995 205.306 300.836Z" fill="black"/>
<path d="M209.121 299.002V299.636H208.961C208.79 299.636 208.621 299.668 208.464 299.73C208.307 299.792 208.167 299.884 208.051 299.999C207.935 300.114 207.846 300.249 207.79 300.397C207.734 300.545 207.712 300.702 207.726 300.858V302.647H207.01V299.048H207.689V299.647C207.838 299.428 208.051 299.251 208.304 299.137C208.557 299.023 208.84 298.976 209.121 299.002Z" fill="black"/>
<path d="M213.664 297.655V302.692H212.985V302.126C212.823 302.325 212.609 302.485 212.364 302.591C212.119 302.698 211.849 302.748 211.578 302.737C211.073 302.701 210.601 302.491 210.257 302.15C209.914 301.809 209.723 301.362 209.723 300.898C209.723 300.434 209.914 299.986 210.257 299.645C210.601 299.305 211.073 299.095 211.578 299.059C211.84 299.049 212.1 299.097 212.338 299.197C212.576 299.297 212.785 299.448 212.948 299.636V297.655H213.664ZM212.961 300.892C212.948 300.655 212.861 300.427 212.709 300.235C212.556 300.044 212.346 299.898 212.104 299.814C211.861 299.731 211.598 299.715 211.346 299.768C211.094 299.821 210.864 299.941 210.686 300.112C210.507 300.284 210.387 300.499 210.341 300.733C210.295 300.966 210.324 301.206 210.426 301.424C210.527 301.642 210.697 301.828 210.912 301.959C211.128 302.09 211.381 302.159 211.639 302.16C211.828 302.174 212.018 302.149 212.194 302.086C212.37 302.023 212.528 301.924 212.656 301.796C212.783 301.668 212.877 301.515 212.93 301.348C212.983 301.182 212.993 301.006 212.961 300.836V300.892Z" fill="black"/>
</g>
<g opacity="0.8">
<path d="M309.971 326.164H187.353C184.891 326.164 182.529 325.268 180.788 323.672C179.047 322.075 178.068 319.911 178.068 317.653C178.068 315.396 179.047 313.231 180.788 311.635C182.529 310.039 184.891 309.143 187.353 309.143H309.971C312.434 309.143 314.795 310.039 316.537 311.635C318.278 313.231 319.256 315.396 319.256 317.653C319.256 319.911 318.278 322.075 316.537 323.672C314.795 325.268 312.434 326.164 309.971 326.164Z" fill="white"/>
</g>
<path d="M279.105 361.25H218.221C217.002 361.25 215.795 361.03 214.668 360.602C213.542 360.174 212.518 359.547 211.656 358.757C210.794 357.967 210.11 357.028 209.643 355.996C209.177 354.963 208.937 353.857 208.937 352.739C208.937 351.621 209.177 350.515 209.643 349.482C210.11 348.449 210.794 347.511 211.656 346.721C212.518 345.931 213.542 345.304 214.668 344.876C215.795 344.448 217.002 344.228 218.221 344.228H279.105C281.567 344.228 283.929 345.125 285.67 346.721C287.411 348.317 288.389 350.482 288.389 352.739C288.389 354.996 287.411 357.161 285.67 358.757C283.929 360.353 281.567 361.25 279.105 361.25Z" fill="#407BFF"/>
<path d="M232.965 354.892C232.058 354.892 231.168 354.587 230.693 354.146L231.007 353.485C231.448 353.883 232.202 354.172 232.965 354.172C233.99 354.172 234.431 353.773 234.431 353.256C234.431 351.807 230.837 352.722 230.837 350.518C230.837 349.603 231.549 348.823 233.109 348.823C233.804 348.823 234.524 349.01 235.016 349.349L234.736 350.027C234.219 349.696 233.634 349.544 233.109 349.544C232.1 349.544 231.668 349.967 231.668 350.484C231.668 351.934 235.262 351.027 235.262 353.205C235.262 354.112 234.533 354.892 232.965 354.892ZM236.788 349.467C236.475 349.467 236.237 349.239 236.237 348.942C236.237 348.645 236.475 348.408 236.788 348.408C237.102 348.408 237.339 348.637 237.339 348.925C237.339 349.23 237.11 349.467 236.788 349.467ZM236.381 354.824V350.332H237.195V354.824H236.381ZM242.275 350.332H243.046V354.214C243.046 355.799 242.241 356.519 240.715 356.519C239.893 356.519 239.062 356.291 238.571 355.85L238.961 355.223C239.376 355.579 240.029 355.807 240.69 355.807C241.749 355.807 242.232 355.316 242.232 354.299V353.943C241.843 354.409 241.258 354.638 240.614 354.638C239.317 354.638 238.333 353.756 238.333 352.459C238.333 351.163 239.317 350.29 240.614 350.29C241.283 350.29 241.893 350.535 242.275 351.027V350.332ZM240.707 353.926C241.605 353.926 242.249 353.324 242.249 352.459C242.249 351.586 241.605 351.002 240.707 351.002C239.8 351.002 239.156 351.586 239.156 352.459C239.156 353.324 239.8 353.926 240.707 353.926ZM247 350.29C248.093 350.29 248.864 350.917 248.864 352.239V354.824H248.051V352.332C248.051 351.451 247.61 351.018 246.839 351.018C245.974 351.018 245.415 351.536 245.415 352.51V354.824H244.601V350.332H245.381V351.01C245.711 350.552 246.288 350.29 247 350.29ZM253.053 349.467C252.74 349.467 252.502 349.239 252.502 348.942C252.502 348.645 252.74 348.408 253.053 348.408C253.367 348.408 253.604 348.637 253.604 348.925C253.604 349.23 253.375 349.467 253.053 349.467ZM252.647 354.824V350.332H253.46V354.824H252.647ZM257.413 350.29C258.506 350.29 259.277 350.917 259.277 352.239V354.824H258.464V352.332C258.464 351.451 258.023 351.018 257.252 351.018C256.387 351.018 255.828 351.536 255.828 352.51V354.824H255.014V350.332H255.794V351.01C256.124 350.552 256.701 350.29 257.413 350.29Z" fill="white"/>
<path d="M469.31 147.04L416.292 146.587C415.083 146.572 413.929 146.118 413.084 145.324C412.239 144.531 411.772 143.463 411.785 142.354L412.292 127.698C412.298 127.149 412.422 126.607 412.657 126.103C412.892 125.598 413.233 125.141 413.661 124.758C414.089 124.374 414.595 124.072 415.15 123.867C415.705 123.663 416.299 123.561 416.897 123.567L469.989 124.031C471.199 124.046 472.352 124.5 473.197 125.293C474.042 126.087 474.509 127.155 474.496 128.263L473.99 142.92C473.983 143.474 473.857 144.021 473.617 144.529C473.377 145.037 473.029 145.497 472.594 145.88C472.158 146.264 471.643 146.564 471.079 146.763C470.515 146.962 469.914 147.056 469.31 147.04Z" fill="#407BFF"/>
<path d="M442.023 143.338C442.023 143.338 435.306 156.919 420.613 161.073C420.613 161.073 428.762 156.885 428.343 142.614L442.023 143.338Z" fill="#407BFF"/>
<path d="M425.54 135.133L426.774 135.767L426.206 136.638L424.972 135.936V137.227H423.885V135.936L422.65 136.638L422.095 135.767L423.329 135.133L422.095 134.499L422.65 133.628L423.885 134.329V133.028H424.972V134.329L426.206 133.628L426.774 134.499L425.54 135.133Z" fill="white"/>
<path d="M433.121 135.134L434.355 135.767L433.787 136.639L432.553 135.937V137.227H431.466V135.937L430.231 136.639L429.676 135.813L430.91 135.179L429.676 134.545L430.244 133.674L431.478 134.375V133.074H432.565V134.375L433.8 133.674L434.368 134.545L433.121 135.134Z" fill="white"/>
<path d="M440.714 135.133L441.949 135.767L441.381 136.638L440.146 135.936V137.227H439.047V135.936L437.812 136.638L437.257 135.767L438.492 135.133L437.257 134.499L437.812 133.628L439.047 134.329V133.028H440.146V134.329L441.381 133.628L441.949 134.499L440.714 135.133Z" fill="white"/>
<path d="M448.295 135.133L449.53 135.767L448.962 136.638L447.727 135.936V137.227H446.641V135.936L445.406 136.638L444.851 135.767L446.085 135.133L444.851 134.499L445.406 133.628L446.641 134.329V133.028H447.727V134.329L448.962 133.628L449.53 134.499L448.295 135.133Z" fill="white"/>
<path d="M455.876 135.133L457.111 135.767L456.543 136.638L455.308 135.936V137.227H454.222V135.936L452.987 136.638L452.419 135.767L453.654 135.133L452.419 134.499L452.987 133.628L454.222 134.329V133.028H455.308V134.329L456.543 133.628L457.111 134.499L455.876 135.133Z" fill="white"/>
<path d="M463.469 135.133L464.704 135.767L464.136 136.638L462.901 135.936V137.227H461.778V135.936L460.543 136.638L459.987 135.767L461.222 135.133L459.987 134.499L460.543 133.628L461.778 134.329V133.028H462.877V134.329L464.111 133.628L464.679 134.499L463.469 135.133Z" fill="white"/>
<path d="M385.399 170.897C392.462 171.905 399.314 191.846 402.29 193.533C405.266 195.219 402.71 174.859 402.71 174.859L408.365 174.168C408.365 174.168 415.057 204.862 405.29 204.635C397.882 204.466 388.992 193.069 386.77 187.263L385.399 170.897Z" fill="#EBB376"/>
<path opacity="0.1" d="M405.29 204.557C400.784 204.455 395.734 200.211 391.98 195.593C389.835 193.028 388.097 190.197 386.819 187.184L386.091 178.809L385.399 170.887C392.462 171.894 399.314 191.836 402.29 193.522C405.266 195.208 402.71 174.848 402.71 174.848L408.365 174.158C408.365 174.158 415.057 204.783 405.29 204.557Z" fill="black"/>
<path opacity="0.2" d="M391.98 195.593C389.835 193.028 388.097 190.196 386.819 187.184L386.091 178.809C386.091 178.809 393.795 185.916 391.98 195.593Z" fill="black"/>
<path d="M359.397 129.657C359.397 129.657 346.816 129.521 347.421 145.377C348.026 161.233 360.126 161.448 356.063 166.032C359.672 167.434 363.552 168.157 367.472 168.157C371.392 168.157 375.272 167.434 378.881 166.032C378.881 166.032 376.646 165.228 377.708 162.319C378.77 159.411 384.597 155.246 385.116 149.112C385.635 142.978 372.411 128.072 359.397 129.657Z" fill="#263238"/>
<path d="M371.83 160.01C371.83 160.01 387.881 157.282 385.202 143.294C383.004 131.829 377.164 128.151 371.83 126.51C369.532 125.8 367.045 125.799 364.747 126.506C362.448 127.213 360.465 128.589 359.1 130.426C359.1 130.426 348.21 127.596 350.099 144.007C351.988 160.417 363.817 167.502 371.83 160.01Z" fill="#263238"/>
<path d="M401.093 394.41L393.956 391.06L396.549 381.282L398.944 372.33L407.933 375.023L404.315 385.288L401.093 394.41Z" fill="#EBB376"/>
<path d="M391.968 389.521C392.387 388.796 401.969 393.889 401.969 393.889C401.969 393.889 404.969 402.344 410.192 406.339C415.414 410.334 410.34 412.054 403.734 409.044L387.387 401.574C382.757 399.412 387.621 397.081 391.968 389.521Z" fill="#263238"/>
<path d="M405.216 398.19C404.178 397.42 403.246 396.539 402.438 395.564C402.432 395.538 402.432 395.511 402.438 395.485C402.432 395.451 402.432 395.417 402.438 395.383C402.433 395.361 402.433 395.337 402.438 395.315C402.448 395.274 402.475 395.238 402.512 395.213C402.599 395.134 404.574 393.402 406.217 393.504C406.458 393.519 406.693 393.582 406.906 393.687C407.119 393.792 407.305 393.939 407.451 394.115C407.607 394.248 407.714 394.422 407.756 394.613C407.798 394.804 407.774 395.002 407.686 395.179C407.39 395.643 406.451 395.79 405.414 395.824C406.226 396.047 406.953 396.475 407.513 397.058C407.607 397.18 407.672 397.318 407.704 397.464C407.736 397.611 407.734 397.761 407.698 397.907C407.562 398.518 407.204 398.71 406.933 398.767C406.619 398.784 406.304 398.742 406.009 398.643C405.714 398.543 405.444 398.389 405.216 398.19ZM403.426 395.824C404.574 397.058 406.118 398.394 406.772 398.246C406.834 398.246 407.007 398.246 407.093 397.805C407.111 397.727 407.111 397.646 407.092 397.567C407.073 397.489 407.035 397.416 406.982 397.352C406.476 396.651 404.648 396.119 403.426 395.824ZM406.71 394.229C406.534 394.111 406.323 394.045 406.105 394.036C405.08 394.136 404.115 394.532 403.352 395.168C405.093 395.326 406.896 395.259 407.143 394.862C407.217 394.738 407.056 394.523 406.945 394.398C406.876 394.332 406.797 394.275 406.71 394.229Z" fill="#407BFF"/>
<path opacity="0.2" d="M404.229 385.492L396.475 381.474L398.895 372.42L407.92 375.068L404.229 385.492Z" fill="black"/>
<path d="M388.499 402.582H380.337L378.004 392.962L375.88 384.146L385.424 382.81L387.054 393.279L388.499 402.582Z" fill="#EBB376"/>
<path d="M377.645 402.287C377.645 401.46 388.758 402.105 388.758 402.105C388.758 402.105 395.561 408.443 402.167 409.869C408.772 411.295 405.08 414.928 397.697 414.928H379.386C374.114 414.928 377.423 410.831 377.645 402.287Z" fill="#263238"/>
<path d="M394.524 404.698C392.928 404.516 391.379 404.083 389.943 403.419L389.845 403.351V403.294C389.82 403.224 389.82 403.149 389.845 403.079C389.845 402.989 390.82 400.623 392.314 400.046C392.538 399.951 392.783 399.901 393.03 399.901C393.277 399.901 393.522 399.951 393.746 400.046C394.252 400.272 394.487 400.555 394.475 400.906C394.475 401.438 393.647 401.97 392.746 402.411C393.578 402.274 394.436 402.36 395.216 402.66C395.358 402.732 395.484 402.829 395.586 402.946C395.688 403.062 395.763 403.196 395.808 403.339C395.899 403.53 395.922 403.743 395.873 403.946C395.824 404.149 395.707 404.333 395.537 404.471C395.238 404.653 394.88 404.733 394.524 404.698ZM390.956 403.249C392.586 403.871 394.66 404.437 395.129 404.041C395.129 404.041 395.314 403.905 395.203 403.509C395.183 403.434 395.145 403.363 395.091 403.302C395.038 403.242 394.971 403.193 394.895 403.158C394.092 402.728 392.203 402.989 390.956 403.249ZM392.931 400.453C392.778 400.456 392.627 400.487 392.487 400.544C391.62 401.067 390.954 401.827 390.585 402.717C392.228 402.151 393.808 401.359 393.833 400.906C393.833 400.759 393.598 400.635 393.45 400.567C393.289 400.492 393.112 400.453 392.931 400.453Z" fill="#407BFF"/>
<path opacity="0.2" d="M387.079 393.495L378.029 393.155L375.893 384.237L385.437 382.856L387.079 393.495Z" fill="black"/>
<path d="M348.704 226.512L368.743 223.57L386.906 220.174L391.845 247.337C391.845 247.337 417.415 281.29 423.613 304.649C429.812 328.009 406.562 382.198 406.562 382.198L395.882 377.863C395.882 377.863 403.29 325.746 403.117 319.487C403.006 315.412 388.424 296.625 378.226 283.961C377.93 287.141 381.239 318.842 381.239 318.842L388.437 388.332H374.979C328.702 256.606 348.704 226.512 348.704 226.512Z" fill="#263238"/>
<path opacity="0.6" d="M374.979 388.288H388.387L381.189 318.797C381.189 318.797 377.905 286.881 378.177 283.916C380.189 286.417 382.374 289.145 384.585 291.963C393.561 303.405 402.982 316.16 403.105 319.431C403.278 325.701 395.87 377.819 395.87 377.819L406.55 382.154C406.55 382.154 429.799 327.942 423.601 304.594C417.403 281.245 391.832 247.292 391.832 247.292L386.893 220.13L368.731 223.525L348.692 226.468C348.692 226.468 328.702 256.607 374.979 388.288Z" fill="white"/>
<path d="M395.277 373.439L411.044 378.419L407.525 383.376L394.573 379.132L395.277 373.439Z" fill="#407BFF"/>
<path d="M373.053 386.624L389.919 384.508L389.079 390.28L375.152 391.887L373.053 386.624Z" fill="#407BFF"/>
<path opacity="0.2" d="M378.177 283.916C380.189 286.417 382.375 289.145 384.585 291.963C381.054 275.19 376.893 258.859 376.893 258.859C376.365 267.23 376.796 275.628 378.177 283.916Z" fill="black"/>
<path d="M386.548 221.238L349.988 223.558C349.988 223.558 349.494 205.608 346.581 196.271C346.185 195.015 345.753 193.702 345.272 192.299C344.593 190.329 343.815 188.213 342.926 185.904C342.716 185.361 342.185 184.003 341.543 182.43C341.035 181.174 340.934 179.811 341.252 178.503C341.569 177.196 342.292 176.001 343.333 175.062C344.347 174.131 345.634 173.49 347.037 173.217C349.729 172.674 352.384 172.165 353.828 171.961C359.305 171.164 364.831 170.684 370.373 170.523C375.065 170.523 380.251 170.772 383.214 170.965L385.782 171.146C385.782 171.146 386.943 171.384 387.684 177.62C388.35 183.482 388.029 199.915 386.548 221.238Z" fill="#407BFF"/>
<path d="M369.175 177.688C359.952 176.16 357.359 172.403 357.359 172.403C363.533 167.581 359.137 158.527 359.137 158.527L370.25 160.961C369.909 162.373 369.682 163.807 369.571 165.25C369.138 171.463 372.2 171.667 372.2 171.667C373.892 175.074 369.175 177.688 369.175 177.688Z" fill="#EBB376"/>
<path opacity="0.2" d="M370.163 160.904C369.822 162.317 369.595 163.75 369.484 165.193C364.163 163.801 359.101 158.471 359.101 158.471L370.163 160.904Z" fill="black"/>
<path d="M369.348 131.874C379.041 132.678 381.695 137.691 381.51 146.915C381.275 158.437 377.707 166.348 365.817 162.896C349.667 158.222 353.235 130.55 369.348 131.874Z" fill="#EBB376"/>
<path d="M375.348 145.897C375.996 147.292 376.825 148.611 377.818 149.824C377.497 150.166 377.079 150.421 376.611 150.56C376.143 150.7 375.642 150.719 375.163 150.616L375.348 145.897Z" fill="#D58745"/>
<path d="M369.423 144.685C369.423 145.41 368.892 145.975 368.361 145.953C367.83 145.93 367.447 145.296 367.496 144.561C367.546 143.825 368.027 143.271 368.558 143.293C369.089 143.316 369.472 143.95 369.423 144.685Z" fill="#263238"/>
<path d="M368.324 143.317L370.115 142.796C370.115 142.796 369.176 144.086 368.324 143.317Z" fill="#263238"/>
<path d="M379.361 145.138C379.299 145.862 378.83 146.428 378.299 146.394C377.768 146.36 377.373 145.749 377.435 145.014C377.497 144.278 377.954 143.712 378.497 143.746C379.04 143.78 379.411 144.403 379.361 145.138Z" fill="#263238"/>
<path d="M378.263 143.735L380.053 143.214C380.053 143.214 379.053 144.539 378.263 143.735Z" fill="#263238"/>
<path d="M365.582 139.944C365.468 139.941 365.358 139.901 365.274 139.831C365.192 139.751 365.146 139.646 365.146 139.536C365.146 139.427 365.192 139.322 365.274 139.242C365.918 138.728 366.684 138.359 367.511 138.162C368.338 137.966 369.204 137.948 370.039 138.11C370.097 138.122 370.151 138.144 370.2 138.176C370.248 138.207 370.289 138.246 370.32 138.292C370.352 138.338 370.373 138.389 370.383 138.442C370.393 138.495 370.392 138.55 370.379 138.603C370.366 138.655 370.342 138.705 370.308 138.75C370.274 138.794 370.231 138.831 370.181 138.86C370.131 138.889 370.075 138.909 370.017 138.918C369.959 138.927 369.899 138.926 369.842 138.914C369.157 138.78 368.448 138.79 367.768 138.943C367.088 139.096 366.455 139.388 365.916 139.797C365.875 139.842 365.824 139.878 365.766 139.904C365.709 139.929 365.646 139.943 365.582 139.944Z" fill="#263238"/>
<path d="M380.806 140.204C380.704 140.201 380.604 140.17 380.522 140.113C380.075 139.724 379.536 139.434 378.948 139.265C378.359 139.097 377.736 139.054 377.127 139.14C377.012 139.164 376.892 139.147 376.791 139.093C376.69 139.038 376.615 138.949 376.584 138.846C376.553 138.742 376.569 138.632 376.626 138.539C376.684 138.445 376.78 138.377 376.892 138.348C377.64 138.228 378.407 138.268 379.135 138.464C379.864 138.661 380.532 139.008 381.09 139.48C381.136 139.514 381.174 139.555 381.202 139.603C381.23 139.65 381.247 139.703 381.253 139.756C381.259 139.81 381.253 139.864 381.235 139.916C381.218 139.967 381.19 140.015 381.152 140.057C381.11 140.104 381.058 140.142 380.998 140.167C380.938 140.193 380.872 140.205 380.806 140.204Z" fill="#263238"/>
<path d="M357.273 145.999C357.273 145.999 362.521 139.061 362.385 133.368C362.385 133.368 382.313 127.71 381.511 145.716C381.511 145.716 384.943 129.996 368.312 128.264C351.68 126.533 349.544 148.908 357.508 156.275C357.508 156.264 354.014 150.322 357.273 145.999Z" fill="#263238"/>
<path d="M358.668 147.991C358.673 147.478 358.567 146.969 358.358 146.494C358.148 146.019 357.839 145.586 357.447 145.22C357.054 144.854 356.588 144.563 356.073 144.362C355.558 144.162 355.005 144.057 354.445 144.052C351.408 144.109 349.42 149.643 356.766 151.624C357.816 151.907 358.52 150.99 358.668 147.991Z" fill="#EBB376"/>
<path d="M374.226 154.759C373.042 154.813 371.871 154.51 370.893 153.897C369.914 153.284 369.181 152.394 368.805 151.364C368.788 151.314 368.782 151.262 368.787 151.21C368.792 151.158 368.808 151.107 368.834 151.061C368.861 151.015 368.897 150.974 368.941 150.94C368.984 150.907 369.035 150.881 369.089 150.866C369.145 150.85 369.204 150.845 369.262 150.85C369.32 150.855 369.377 150.871 369.429 150.896C369.48 150.921 369.526 150.956 369.563 150.997C369.6 151.039 369.628 151.086 369.645 151.138C369.973 152.033 370.621 152.801 371.483 153.318C372.345 153.835 373.372 154.072 374.399 153.99C374.514 153.983 374.628 154.019 374.716 154.089C374.804 154.159 374.858 154.257 374.868 154.363C374.875 154.469 374.836 154.574 374.76 154.654C374.683 154.735 374.576 154.785 374.46 154.793L374.226 154.759Z" fill="#263238"/>
<path d="M381.362 143.203C381.269 143.203 381.178 143.175 381.102 143.124C381.027 143.073 380.971 143.002 380.943 142.92C377.164 131.603 362.694 133.368 362.558 133.391C362.501 133.398 362.443 133.395 362.388 133.382C362.332 133.369 362.28 133.346 362.234 133.315C362.188 133.283 362.15 133.244 362.12 133.199C362.091 133.153 362.072 133.103 362.064 133.051C362.056 132.999 362.059 132.946 362.073 132.895C362.087 132.844 362.112 132.797 362.147 132.755C362.181 132.713 362.224 132.677 362.274 132.65C362.323 132.624 362.378 132.606 362.434 132.599C362.583 132.599 377.782 130.731 381.782 142.683C381.799 142.733 381.805 142.786 381.799 142.839C381.793 142.891 381.776 142.942 381.749 142.989C381.721 143.035 381.683 143.076 381.638 143.109C381.593 143.142 381.541 143.166 381.486 143.181L381.362 143.203Z" fill="#263238"/>
<path d="M406.463 162.318C406.463 162.318 411.563 162.239 411.736 163.054C411.908 163.869 411.575 170.716 410.896 171.678C410.156 172.547 409.306 173.334 408.365 174.02L408.859 186.153L405.821 187.126L403.068 176.024C403.068 176.024 399.944 173.228 400.858 169.686C401.772 166.143 406.463 162.318 406.463 162.318Z" fill="#EBB376"/>
<path opacity="0.1" d="M406.463 162.318C406.463 162.318 411.563 162.239 411.736 163.054C411.908 163.869 411.575 170.716 410.896 171.678C410.156 172.547 409.306 173.334 408.365 174.02L408.859 186.153L405.821 187.126L403.068 176.024C403.068 176.024 399.944 173.228 400.858 169.686C401.772 166.143 406.463 162.318 406.463 162.318Z" fill="black"/>
<path d="M397.808 168.295C397.804 168.396 397.824 168.497 397.866 168.591C397.908 168.685 397.971 168.77 398.052 168.839C398.133 168.909 398.229 168.962 398.334 168.995C398.438 169.028 398.55 169.04 398.66 169.03L407.303 168.419C407.544 168.398 407.768 168.298 407.936 168.138C408.103 167.978 408.203 167.769 408.217 167.548L408.834 151.703C408.841 151.595 408.823 151.486 408.783 151.384C408.743 151.282 408.68 151.189 408.6 151.109C408.519 151.03 408.421 150.966 408.313 150.923C408.205 150.879 408.088 150.855 407.97 150.854L399.327 151.465C399.076 151.511 398.849 151.633 398.683 151.812C398.517 151.991 398.422 152.215 398.413 152.45L397.808 168.295Z" fill="#263238"/>
<path opacity="0.5" d="M399.376 152.292L398.808 168.272C398.792 168.367 398.8 168.464 398.831 168.555C398.863 168.646 398.918 168.729 398.991 168.798C399.065 168.866 399.154 168.917 399.253 168.948C399.352 168.979 399.458 168.987 399.561 168.974L406.908 168.453C407.402 168.453 408.291 168.102 408.303 167.65L408.92 151.624C408.92 151.171 408.068 150.877 407.575 150.911L400.166 151.431C399.939 151.454 399.731 151.556 399.583 151.717C399.436 151.877 399.362 152.083 399.376 152.292Z" fill="white"/>
<path d="M388.992 180.313L392.289 173.262C392.289 173.262 393.363 163.812 393.882 162.793C394.4 161.775 402.796 162.16 403.759 162.103C404.722 162.046 404.5 171.474 403.623 172.47C402.747 173.466 399.314 174.258 399.314 174.258L394.042 183.629L388.992 180.313Z" fill="#EBB376"/>
<path d="M379.707 176.488C378.818 179.725 375.398 182.215 368.323 182.147C364.311 182.085 360.423 180.865 357.211 178.661C354.654 176.939 352.44 174.826 350.667 172.414C351.692 172.244 352.729 172.097 353.766 171.95C359.243 171.154 364.769 170.674 370.311 170.513C373.237 170.513 376.336 170.592 378.954 170.716C379.872 172.517 380.136 174.54 379.707 176.488Z" fill="#EBB376"/>
<path d="M349.889 221.023L348.358 227.158L387.819 225.256L386.683 219.201L349.889 221.023Z" fill="#263238"/>
<path d="M372.311 226.264C371.946 226.266 371.593 226.143 371.321 225.919C371.05 225.695 370.879 225.386 370.842 225.053L370.385 221.137C370.349 220.766 370.473 220.396 370.731 220.107C370.859 219.967 371.017 219.853 371.196 219.771C371.374 219.689 371.569 219.642 371.768 219.632L377.522 219.27C377.909 219.245 378.291 219.36 378.587 219.591C378.882 219.821 379.067 220.149 379.102 220.504L379.497 224.363C379.533 224.726 379.413 225.087 379.164 225.37C379.037 225.509 378.881 225.623 378.705 225.704C378.528 225.786 378.336 225.834 378.139 225.846L372.435 226.264H372.311ZM371.62 221.013L372.064 224.929C372.073 224.988 372.106 225.041 372.157 225.079C372.207 225.117 372.271 225.136 372.336 225.133L378.04 224.725C378.074 224.721 378.107 224.711 378.136 224.696C378.166 224.68 378.192 224.659 378.213 224.635C378.257 224.588 378.279 224.527 378.275 224.465L377.867 220.605C377.866 220.576 377.858 220.548 377.844 220.521C377.83 220.495 377.81 220.471 377.786 220.452C377.761 220.433 377.733 220.419 377.703 220.41C377.672 220.402 377.64 220.399 377.608 220.402L371.854 220.764C371.819 220.763 371.783 220.769 371.751 220.783C371.719 220.797 371.691 220.817 371.669 220.843C371.657 220.87 371.65 220.899 371.65 220.928C371.65 220.957 371.657 220.986 371.669 221.013H371.62Z" fill="white"/>
<path d="M377.818 222.959H375.694C375.531 222.959 375.374 222.9 375.258 222.794C375.142 222.688 375.077 222.544 375.077 222.394C375.08 222.244 375.146 222.102 375.261 221.997C375.377 221.891 375.532 221.831 375.694 221.828H377.818C377.981 221.831 378.136 221.891 378.251 221.997C378.366 222.102 378.432 222.244 378.436 222.394C378.436 222.544 378.37 222.688 378.255 222.794C378.139 222.9 377.982 222.959 377.818 222.959Z" fill="white"/>
<path opacity="0.2" d="M355.335 195.06C351.84 196.192 347.926 194.212 345.272 192.299C344.593 190.33 343.815 188.213 342.926 185.904C342.716 185.361 342.185 184.003 341.543 182.43C341.035 181.174 340.934 179.811 341.252 178.504C341.569 177.197 342.292 176.001 343.333 175.062C350.05 180.868 360.002 193.6 355.335 195.06Z" fill="black"/>
<path d="M343.247 174.292C343.947 173.775 344.756 173.395 345.624 173.176C346.492 172.958 347.399 172.905 348.29 173.022C349.18 173.139 350.035 173.422 350.801 173.855C351.567 174.288 352.227 174.86 352.742 175.537C358.162 182.656 367.262 194.494 368.361 195.071C369.929 195.909 381.757 185.915 392.301 173.24L398.759 175.503C398.759 175.503 382.078 206.944 370.237 207.079C361.36 207.181 348.013 190.68 341.95 182.384C341.015 181.134 340.629 179.606 340.87 178.105C341.11 176.605 341.959 175.244 343.247 174.292Z" fill="#EBB376"/>
<path opacity="0.2" d="M355.335 232.183C355.335 232.183 352.322 239.686 344.877 242.369V245.062C344.877 245.062 355.792 240.807 357.323 233.744L355.335 232.183Z" fill="black"/>
<path opacity="0.2" d="M346.865 271.704L357.323 269.905L359.817 289.167L349.803 290.503L348.359 277.963L357.397 276.786L356.878 272.032L356.73 276.254L346.568 277.748L346.865 271.704Z" fill="black"/>
</svg>
